<svg xmlns="http://www.w3.org/2000/svg" width="30" height="30" viewBox="0 0 30 30">
  <g id="Group_22239" data-name="Group 22239" transform="translate(-187.369 -160.1)">
    <g id="Group_23681" data-name="Group 23681" transform="translate(-12 129)">
      <g id="Group_15458" data-name="Group 15458" transform="translate(199.369 31.1)">
        <g id="surf_-_automation" data-name="surf - automation">
          <g id="Group_5235" data-name="Group 5235">
            <g id="Group_5155" data-name="Group 5155">
              <g id="Rectangle_19924" data-name="Rectangle 19924" fill="#a0aabe" stroke="#0d182f" stroke-width="0.05">
                <rect width="30" height="30" rx="15" stroke="none"/>
                <rect x="0.025" y="0.025" width="29.95" height="29.95" rx="14.975" fill="none"/>
              </g>
            </g>
          </g>
        </g>
      </g>
      <g id="deep" transform="translate(202.369 34.099)">
        <path id="Path_36500" data-name="Path 36500" d="M22.579,13.363a2.486,2.486,0,0,0-3.115,1.09L18.352,14a6.451,6.451,0,0,0-.009-4.387l1.109-.462a2.485,2.485,0,1,0-.221-.532l-1.11.462a6.492,6.492,0,0,0-3.108-3.1l.458-1.112a2.483,2.483,0,1,0-.533-.22L14.48,5.761a6.452,6.452,0,0,0-4.387.009L9.631,4.661a2.491,2.491,0,1,0-.532.222l.462,1.11A6.491,6.491,0,0,0,6.466,9.1L5.354,8.643a2.479,2.479,0,1,0-.219.533l1.111.457a6.452,6.452,0,0,0,.009,4.387l-1.109.462a2.483,2.483,0,1,0,.222.532l1.11-.462a6.491,6.491,0,0,0,3.108,3.1l-.458,1.112a2.483,2.483,0,1,0,.533.22l.457-1.111a6.451,6.451,0,0,0,4.387-.009l.462,1.109a2.482,2.482,0,1,0,.532-.222l-.462-1.11a6.491,6.491,0,0,0,3.1-3.108l1.112.458a2.483,2.483,0,1,0,3.335-1.623Zm-6.334-.4a1.148,1.148,0,0,1-1.109-.858H12.995L14.51,13.62a1.146,1.146,0,1,1-.408.408L12.587,12.51v2.141a1.146,1.146,0,1,1-.576,0V12.51L10.5,14.025a1.146,1.146,0,1,1-.408-.408L11.6,12.1H9.462a1.146,1.146,0,1,1,0-.576H11.6l-1.515-1.515A1.146,1.146,0,1,1,10.5,9.6l1.515,1.515V8.978a1.146,1.146,0,1,1,.576,0v2.141L14.1,9.6a1.147,1.147,0,1,1,.408.408l-1.515,1.515h2.141a1.146,1.146,0,1,1,1.109,1.434Zm0,0" transform="translate(-0.488 0.003)" fill="#35344b"/>
        <g id="Group_16718" data-name="Group 16718" transform="translate(7.252 7.249)">
          <path id="Path_36501" data-name="Path 36501" d="M234.492,316.851a.569.569,0,1,0,.569-.569.569.569,0,0,0-.569.569Zm0,0" transform="translate(-230.546 -308.389)" fill="#35344b"/>
          <path id="Path_36502" data-name="Path 36502" d="M176.989,292.227a.569.569,0,1,0,.4.167.569.569,0,0,0-.4-.167Zm0,0" transform="translate(-175.264 -285.49)" fill="#35344b"/>
          <path id="Path_36503" data-name="Path 36503" d="M152.917,234.137a.569.569,0,1,0,.569.569.569.569,0,0,0-.569-.569Zm0,0" transform="translate(-152.348 -230.191)" fill="#35344b"/>
          <path id="Path_36504" data-name="Path 36504" d="M293.548,177.025a.565.565,0,1,0-.4.168.565.565,0,0,0,.4-.168Zm0,0" transform="translate(-285.839 -174.897)" fill="#35344b"/>
          <path id="Path_36505" data-name="Path 36505" d="M176.977,176.055a.569.569,0,1,0,.4.167.569.569,0,0,0-.4-.167Zm0,0" transform="translate(-175.252 -174.899)" fill="#35344b"/>
          <path id="Path_36506" data-name="Path 36506" d="M235.631,152.562a.569.569,0,1,0-.57.569.569.569,0,0,0,.57-.569Zm0,0" transform="translate(-230.546 -151.993)" fill="#35344b"/>
          <path id="Path_36507" data-name="Path 36507" d="M293.147,293.359a.57.57,0,1,0-.4-.167.57.57,0,0,0,.4.167Zm0,0" transform="translate(-285.841 -285.483)" fill="#35344b"/>
          <path id="Path_36508" data-name="Path 36508" d="M317.206,234.137a.569.569,0,1,0,.569.569.569.569,0,0,0-.569-.569Zm0,0" transform="translate(-308.744 -230.191)" fill="#35344b"/>
        </g>
      </g>
    </g>
  </g>
</svg>
