<svg xmlns="http://www.w3.org/2000/svg" width="18.398" height="31.385" viewBox="0 0 18.398 31.385">
  <g id="single-02" transform="translate(96 -126.957)">
    <g id="mobile" transform="translate(-118 116)">
      <g id="Group_25069" data-name="Group 25069">
        <g id="Group_25068" data-name="Group 25068">
          <g id="Group_25067" data-name="Group 25067">
            <g id="Group_25061" data-name="Group 25061">
              <path id="Path_50178" data-name="Path 50178" d="M37.292,42.34H25.109A3.107,3.107,0,0,1,22,39.235V14.065a3.11,3.11,0,0,1,3.108-3.108H37.291A3.107,3.107,0,0,1,40.4,14.064v25.17a3.1,3.1,0,0,1-3.107,3.108Z" fill="#48c6b6"/>
              <path id="Path_50179" data-name="Path 50179" d="M37.292,42.34H25.109A3.107,3.107,0,0,1,22,39.235V14.065a3.11,3.11,0,0,1,3.108-3.108H37.291A3.107,3.107,0,0,1,40.4,14.064v25.17a3.1,3.1,0,0,1-3.107,3.108Z" fill="none"/>
            </g>
            <g id="Group_25062" data-name="Group 25062">
              <path id="Path_50180" data-name="Path 50180" d="M23.624,37.471V14.2H38.777V37.47Z" fill="#fff"/>
              <path id="Path_50181" data-name="Path 50181" d="M23.624,37.471h0V14.2H38.777V37.47Z" fill="none" stroke="#48c6b6" stroke-miterlimit="50" stroke-width="0.2"/>
            </g>
            <g id="Group_25063" data-name="Group 25063">
              <path id="Path_50183" data-name="Path 50183" d="M32.824,13.12H29.577a.541.541,0,1,1,0-1.08h3.247a.54.54,0,1,1,0,1.08Z" fill="none"/>
            </g>
            <g id="Group_25064" data-name="Group 25064">
              <path id="Path_50185" data-name="Path 50185" d="M37.694,13.12h-.542a.54.54,0,0,1,0-1.08h.542a.54.54,0,1,1,0,1.08Z" fill="none"/>
            </g>
            <g id="Group_25065" data-name="Group 25065">
              <path id="Path_50187" data-name="Path 50187" d="M35.53,13.12h-.542a.541.541,0,1,1,0-1.08h.542a.54.54,0,1,1,0,1.08Z" fill="none"/>
            </g>
            <g id="Group_25066" data-name="Group 25066">
              <path id="Path_50188" data-name="Path 50188" d="M32.555,40.719H29.849a.811.811,0,1,1,0-1.622h2.706a.811.811,0,1,1,0,1.622Z" fill="#fff"/>
              <path id="Path_50189" data-name="Path 50189" d="M32.555,40.719H29.849a.811.811,0,1,1,0-1.622h2.706a.811.811,0,1,1,0,1.622Z" fill="none" stroke="#fff" stroke-miterlimit="50" stroke-width="0.2"/>
            </g>
          </g>
        </g>
      </g>
    </g>
  </g>
</svg>
