<svg xmlns="http://www.w3.org/2000/svg" width="23.308" height="20.11" viewBox="0 0 23.308 20.11">
  <g id="strategy" transform="translate(23.308) rotate(90)">
    <g id="Group_9564" data-name="Group 9564" transform="translate(0 0)">
      <path id="Path_7149" data-name="Path 7149" d="M3.467,4.286a.592.592,0,0,0,.418.172A.6.6,0,0,0,4.3,4.286a.59.59,0,0,0,0-.836L3.074,2.22,4.3.99A.592.592,0,0,0,3.468.155l-1.23,1.23L1.009.155A.592.592,0,0,0,.173.99L1.4,2.22.173,3.45A.59.59,0,0,0,.591,4.458a.6.6,0,0,0,.418-.172l1.23-1.23Z" transform="translate(4.367 5.438)" fill="#6994f1"/>
      <path id="Path_7150" data-name="Path 7150" d="M4.324.193a.59.59,0,0,0-.836,0l-1.23,1.23L1.029.193a.592.592,0,1,0-.836.836l1.23,1.23L.193,3.488A.591.591,0,0,0,.611,4.5a.6.6,0,0,0,.418-.172l1.23-1.23,1.23,1.23a.593.593,0,0,0,.418.172.6.6,0,0,0,.418-.172.59.59,0,0,0,0-.836L3.1,2.258l1.23-1.23a.59.59,0,0,0,0-.836Z" transform="translate(15.61 14.868)" fill="#6994f1"/>
      <path id="Path_7151" data-name="Path 7151" d="M4.3.173a.59.59,0,0,0-.836,0L2.238,1.4,1.009.173a.592.592,0,0,0-.836.836L1.4,2.239.173,3.469A.591.591,0,0,0,.591,4.477.6.6,0,0,0,1.01,4.3l1.23-1.23L3.469,4.3a.591.591,0,0,0,.418.172A.6.6,0,0,0,4.306,4.3a.591.591,0,0,0,0-.836l-1.23-1.23,1.23-1.23a.6.6,0,0,0,0-.836Z" transform="translate(6.417 16.821)" fill="#6994f1"/>
      <path id="Path_7152" data-name="Path 7152" d="M.59,1.181A.59.59,0,1,0,0,.59.59.59,0,0,0,.59,1.181Z" transform="translate(6.31 12.487)" fill="#6994f1"/>
      <path id="Path_7153" data-name="Path 7153" d="M.264,1.082a.6.6,0,0,0,.324.1.59.59,0,1,0-.324-.1Z" transform="translate(2.263 14.328)" fill="#6994f1"/>
      <path id="Path_7154" data-name="Path 7154" d="M.351.051A.588.588,0,0,0,.592,1.177a.6.6,0,0,0,.241-.049.587.587,0,0,0,.3-.777.594.594,0,0,0-.781-.3Z" transform="translate(4.021 12.836)" fill="#6994f1"/>
      <circle id="Ellipse_1074" data-name="Ellipse 1074" cx="0.59" cy="0.59" r="0.59" transform="translate(8.645 12.488)" fill="#6994f1"/>
      <path id="Path_7155" data-name="Path 7155" d="M.591,1.177A.588.588,0,1,0,.173,1a.6.6,0,0,0,.418.172Z" transform="translate(1.602 16.539)" fill="#6994f1"/>
      <path id="Path_7156" data-name="Path 7156" d="M7.393,2.455,5.111.173a.59.59,0,0,0-.836,0L1.993,2.455a.592.592,0,0,0,.836.836L4.1,2.017V3.542A3.475,3.475,0,0,1,.616,7a.59.59,0,1,0,0,1.18A4.662,4.662,0,0,0,5.283,3.542V2.012L6.557,3.287a.592.592,0,0,0,.418.172.6.6,0,0,0,.418-.172.585.585,0,0,0,0-.831Z" transform="translate(10.952 5.483)" fill="#6994f1"/>
      <circle id="Ellipse_1075" data-name="Ellipse 1075" cx="2.22" cy="2.22" r="2.22" transform="translate(13.319 0)" fill="#6994f1"/>
      <circle id="Ellipse_1076" data-name="Ellipse 1076" cx="2.22" cy="2.22" r="2.22" transform="translate(0 18.869)" fill="#6994f1"/>
    </g>
  </g>
</svg>
