<svg xmlns="http://www.w3.org/2000/svg" width="16" height="17.998" viewBox="0 0 16 17.998">
  <g id="Group_16233" data-name="Group 16233" transform="translate(-446 -586.7)">
    <g id="Group_11819" data-name="Group 11819">
      <rect id="Rectangle_116" data-name="Rectangle 116" width="2" height="16" rx="1" transform="translate(462 589) rotate(90)" fill="#a0aabe"/>
      <g id="Group_11287" data-name="Group 11287" transform="translate(-1.345 11.7)">
        <path id="Ellipse_1095" data-name="Ellipse 1095" d="M1.857,0A1.857,1.857,0,1,1,0,1.857,1.857,1.857,0,0,1,1.857,0Z" transform="translate(457.249 576.488)" fill="#35344b"/>
        <g id="settings-gear-64" transform="translate(456 575)">
          <path id="Path_108" data-name="Path 108" d="M5.4,2.113l.447-.853L5.282.691l-.853.447A1.456,1.456,0,0,0,3.982.975L3.657,0H2.844L2.519.935a1.7,1.7,0,0,0-.406.163L1.26.65l-.61.61.447.853a1.7,1.7,0,0,0-.163.406L0,2.844v.813l.935.325c.041.163.122.284.163.447L.65,5.282l.569.569L2.072,5.4a1.456,1.456,0,0,0,.447.163l.325.935h.813l.325-.935c.163-.041.284-.122.447-.163l.853.447.569-.569L5.4,4.429a1.456,1.456,0,0,0,.163-.447L6.5,3.657V2.844l-.935-.325A1.7,1.7,0,0,0,5.4,2.113ZM3.25,4.469A1.2,1.2,0,0,1,2.032,3.25,1.2,1.2,0,0,1,3.25,2.032,1.2,1.2,0,0,1,4.469,3.25,1.2,1.2,0,0,1,3.25,4.469Z" fill="#a0aabe"/>
        </g>
      </g>
    </g>
    <g id="Group_11820" data-name="Group 11820">
      <path id="Path_36679" data-name="Path 36679" d="M1,0A1,1,0,0,1,2,1V15a1,1,0,1,1-2,0V1A1,1,0,0,1,1,0Z" transform="translate(462 595) rotate(90)" fill="#a0aabe"/>
      <g id="Group_11292" data-name="Group 11292" transform="translate(-9.344 17.701)">
        <circle id="Ellipse_1095-2" data-name="Ellipse 1095" cx="1.857" cy="1.857" r="1.857" transform="translate(457.249 576.488)" fill="#35344b"/>
        <g id="settings-gear-64-2" data-name="settings-gear-64" transform="translate(456 575)">
          <path id="Path_108-2" data-name="Path 108" d="M5.4,2.113l.447-.853L5.282.691l-.853.447A1.456,1.456,0,0,0,3.982.975L3.657,0H2.844L2.519.935a1.7,1.7,0,0,0-.406.163L1.26.65l-.61.61.447.853a1.7,1.7,0,0,0-.163.406L0,2.844v.813l.935.325c.041.163.122.284.163.447L.65,5.282l.569.569L2.072,5.4a1.456,1.456,0,0,0,.447.163l.325.935h.813l.325-.935c.163-.041.284-.122.447-.163l.853.447.569-.569L5.4,4.429a1.456,1.456,0,0,0,.163-.447L6.5,3.657V2.844l-.935-.325A1.7,1.7,0,0,0,5.4,2.113ZM3.25,4.469A1.2,1.2,0,0,1,2.032,3.25,1.2,1.2,0,0,1,3.25,2.032,1.2,1.2,0,0,1,4.469,3.25,1.2,1.2,0,0,1,3.25,4.469Z" fill="#a0aabe"/>
        </g>
      </g>
    </g>
    <g id="Group_11821" data-name="Group 11821">
      <rect id="Rectangle_117" data-name="Rectangle 117" width="2" height="16" rx="1" transform="translate(462 600.5) rotate(90)" fill="#a0aabe"/>
      <g id="Group_11293" data-name="Group 11293" transform="translate(-1.344 23.2)">
        <circle id="Ellipse_1095-3" data-name="Ellipse 1095" cx="1.857" cy="1.857" r="1.857" transform="translate(457.249 576.488)" fill="#35344b"/>
        <g id="settings-gear-64-3" data-name="settings-gear-64" transform="translate(456 575)">
          <path id="Path_108-3" data-name="Path 108" d="M5.4,2.113l.447-.853L5.282.691l-.853.447A1.456,1.456,0,0,0,3.982.975L3.657,0H2.844L2.519.935a1.7,1.7,0,0,0-.406.163L1.26.65l-.61.61.447.853a1.7,1.7,0,0,0-.163.406L0,2.844v.813l.935.325c.041.163.122.284.163.447L.65,5.282l.569.569L2.072,5.4a1.456,1.456,0,0,0,.447.163l.325.935h.813l.325-.935c.163-.041.284-.122.447-.163l.853.447.569-.569L5.4,4.429a1.456,1.456,0,0,0,.163-.447L6.5,3.657V2.844l-.935-.325A1.7,1.7,0,0,0,5.4,2.113ZM3.25,4.469A1.2,1.2,0,0,1,2.032,3.25,1.2,1.2,0,0,1,3.25,2.032,1.2,1.2,0,0,1,4.469,3.25,1.2,1.2,0,0,1,3.25,4.469Z" fill="#a0aabe"/>
        </g>
      </g>
    </g>
  </g>
</svg>
