<svg xmlns="http://www.w3.org/2000/svg" xmlns:xlink="http://www.w3.org/1999/xlink" width="648" height="168" viewBox="0 0 648 168">
  <defs>
    <filter id="Rectangle_26252" x="0" y="0" width="648" height="168" filterUnits="userSpaceOnUse">
      <feOffset dy="3" input="SourceAlpha"/>
      <feGaussianBlur stdDeviation="3" result="blur"/>
      <feFlood flood-opacity="0.161"/>
      <feComposite operator="in" in2="blur"/>
      <feComposite in="SourceGraphic"/>
    </filter>
    <filter id="Path_35978" x="240" y="65.392" width="112.479" height="88.859" filterUnits="userSpaceOnUse">
      <feOffset dy="3" input="SourceAlpha"/>
      <feGaussianBlur stdDeviation="3" result="blur-2"/>
      <feFlood flood-opacity="0.161"/>
      <feComposite operator="in" in2="blur-2"/>
      <feComposite in="SourceGraphic"/>
    </filter>
    <filter id="Path_4215" x="278.973" y="72.084" width="34.534" height="34.534" filterUnits="userSpaceOnUse">
      <feOffset dy="3" input="SourceAlpha"/>
      <feGaussianBlur stdDeviation="3" result="blur-3"/>
      <feFlood flood-opacity="0.161"/>
      <feComposite operator="in" in2="blur-3"/>
      <feComposite in="SourceGraphic"/>
    </filter>
    <filter id="Path_7016" x="401" y="28.015" width="99.103" height="78.827" filterUnits="userSpaceOnUse">
      <feOffset dy="3" input="SourceAlpha"/>
      <feGaussianBlur stdDeviation="3" result="blur-4"/>
      <feFlood flood-opacity="0.161"/>
      <feComposite operator="in" in2="blur-4"/>
      <feComposite in="SourceGraphic"/>
    </filter>
    <filter id="Path_4215-2" x="435.375" y="36.396" width="32.193" height="32.193" filterUnits="userSpaceOnUse">
      <feOffset dy="3" input="SourceAlpha"/>
      <feGaussianBlur stdDeviation="3" result="blur-5"/>
      <feFlood flood-opacity="0.161"/>
      <feComposite operator="in" in2="blur-5"/>
      <feComposite in="SourceGraphic"/>
    </filter>
    <filter id="Path_7016-2" x="535" y="38.111" width="86.129" height="69.097" filterUnits="userSpaceOnUse">
      <feOffset dy="3" input="SourceAlpha"/>
      <feGaussianBlur stdDeviation="3" result="blur-6"/>
      <feFlood flood-opacity="0.161"/>
      <feComposite operator="in" in2="blur-6"/>
      <feComposite in="SourceGraphic"/>
    </filter>
    <filter id="Path_4214" x="563.103" y="42.928" width="29.923" height="29.923" filterUnits="userSpaceOnUse">
      <feOffset dy="3" input="SourceAlpha"/>
      <feGaussianBlur stdDeviation="3" result="blur-7"/>
      <feFlood flood-opacity="0.161"/>
      <feComposite operator="in" in2="blur-7"/>
      <feComposite in="SourceGraphic"/>
    </filter>
    <filter id="Path_7016-3" x="305" y="18.863" width="142.46" height="111.345" filterUnits="userSpaceOnUse">
      <feOffset dy="3" input="SourceAlpha"/>
      <feGaussianBlur stdDeviation="3" result="blur-8"/>
      <feFlood flood-opacity="0.161"/>
      <feComposite operator="in" in2="blur-8"/>
      <feComposite in="SourceGraphic"/>
    </filter>
    <filter id="Path_4214-2" x="356.34" y="27.663" width="39.781" height="39.781" filterUnits="userSpaceOnUse">
      <feOffset dy="3" input="SourceAlpha"/>
      <feGaussianBlur stdDeviation="3" result="blur-9"/>
      <feFlood flood-opacity="0.161"/>
      <feComposite operator="in" in2="blur-9"/>
      <feComposite in="SourceGraphic"/>
    </filter>
    <filter id="Path_35849" x="442" y="42.692" width="130.907" height="102.68" filterUnits="userSpaceOnUse">
      <feOffset dy="3" input="SourceAlpha"/>
      <feGaussianBlur stdDeviation="3" result="blur-10"/>
      <feFlood flood-opacity="0.161"/>
      <feComposite operator="in" in2="blur-10"/>
      <feComposite in="SourceGraphic"/>
    </filter>
    <filter id="Path_4214-3" x="488.595" y="50.69" width="37.84" height="37.84" filterUnits="userSpaceOnUse">
      <feOffset dy="3" input="SourceAlpha"/>
      <feGaussianBlur stdDeviation="3" result="blur-11"/>
      <feFlood flood-opacity="0.161"/>
      <feComposite operator="in" in2="blur-11"/>
      <feComposite in="SourceGraphic"/>
    </filter>
  </defs>
  <g id="Group_20116" data-name="Group 20116" transform="translate(3390 -2892)">
    <g transform="matrix(1, 0, 0, 1, -3390, 2892)" filter="url(#Rectangle_26252)">
      <rect id="Rectangle_26252-2" data-name="Rectangle 26252" width="630" height="150" rx="10" transform="translate(9 6)" fill="#fff"/>
    </g>
    <g id="Group_19861" data-name="Group 19861" transform="translate(19790 -12808)">
      <path id="Rectangle_23721" data-name="Rectangle 23721" d="M10,0H210a0,0,0,0,1,0,0V150a0,0,0,0,1,0,0H10A10,10,0,0,1,0,140V10A10,10,0,0,1,10,0Z" transform="translate(-23171 15706)" fill="#f3f7ff"/>
      <text id="Full_Funnel_Strategy" data-name="Full Funnel 
Strategy" transform="translate(-23101 15776)" fill="#35344b" font-size="20" font-family="Helvetica"><tspan x="0" y="0">Full Funnel </tspan><tspan x="0" y="24">Strategy</tspan></text>
      <g id="single-02" transform="translate(-23145 15945)">
        <path id="Union_10" data-name="Union 10" d="M0,25a9.43,9.43,0,0,1,9.428-9.375h3.143A9.43,9.43,0,0,1,22,25Zm4.085-3.126H18.071a6.344,6.344,0,0,0-5.5-3.125H9.585A6.348,6.348,0,0,0,4.085,21.874ZM4.714,7.812V6.249a6.286,6.286,0,0,1,12.572,0V7.812a6.286,6.286,0,0,1-12.572,0ZM7.857,6.249V7.812a3.143,3.143,0,0,0,6.287,0V6.249a3.143,3.143,0,0,0-6.287,0Z" transform="translate(1 -176)" fill="#35344b"/>
      </g>
    </g>
    <g id="Group_19872" data-name="Group 19872" transform="translate(-4020 2226)">
      <g id="Group_19406" data-name="Group 19406" transform="translate(233 5)">
        <path id="Rectangle_23721-2" data-name="Rectangle 23721" d="M0,0H410a10,10,0,0,1,10,10V140a10,10,0,0,1-10,10H0a0,0,0,0,1,0,0V0A0,0,0,0,1,0,0Z" transform="translate(616 667)" fill="#fff"/>
      </g>
      <g id="Group_19467" data-name="Group 19467">
        <g id="Group_19466" data-name="Group 19466">
          <g id="Group_19441" data-name="Group 19441" transform="translate(879 737.392)">
            <g transform="matrix(1, 0, 0, 1, -249, -71.39)" filter="url(#Path_35978)">
              <path id="Path_35978-2" data-name="Path 35978" d="M0,0H94.479V70.859H0Z" transform="translate(249 71.39)" fill="#fff"/>
            </g>
            <line id="Line_441" data-name="Line 441" x2="90.542" transform="translate(2.165 41.334)" fill="none" stroke="#a0aabe" stroke-width="0.1"/>
            <path id="Path_6993" data-name="Path 6993" d="M0,0H3.937V94.479H0Z" transform="translate(0 3.937) rotate(-90)" fill="#1eb1f4"/>
            <g id="Group_7643" data-name="Group 7643" transform="translate(38.973 6.692)">
              <g transform="matrix(1, 0, 0, 1, -287.97, -78.08)" filter="url(#Path_4215)">
                <path id="Path_4215-3" data-name="Path 4215" d="M8.267,0A8.267,8.267,0,1,1,0,8.267,8.267,8.267,0,0,1,8.267,0Z" transform="translate(287.97 78.08)" fill="#fff"/>
              </g>
              <g id="Group_6971" data-name="Group 6971" transform="translate(3.674 4.15)">
                <g id="Group_3659" data-name="Group 3659">
                  <path id="Path_3266" data-name="Path 3266" d="M6.47,45.721c0,.168-.193.307-.428.307H.428c-.242,0-.428-.14-.428-.307V41.707c0-.168.193-.307.428-.307H6.035c.235,0,.428.14.428.307v4.014Zm0,0" transform="translate(0 -38.517)" fill="#0a4673"/>
                  <path id="Path_3267" data-name="Path 3267" d="M9.954,8.989A1.077,1.077,0,1,1,8.877,7.9,1.084,1.084,0,0,1,9.954,8.989Zm0,0" transform="translate(-7.261 -7.356)" fill="#0a4673"/>
                  <path id="Path_3268" data-name="Path 3268" d="M49.593,1.461a1.347,1.347,0,1,1-2.693,0,1.347,1.347,0,1,1,2.693,0Zm0,0" transform="translate(-43.662 -0.1)" fill="#0a4673"/>
                  <path id="Path_3269" data-name="Path 3269" d="M99.661,40.772a.305.305,0,0,1-.29.272A6.97,6.97,0,0,1,97.5,39.32v-2A6.31,6.31,0,0,1,99.371,35.6a.272.272,0,0,1,.29.272Zm0,0" transform="translate(-90.768 -33.122)" fill="#0a4673"/>
                </g>
              </g>
            </g>
            <g id="Symbol_217_18" data-name="Symbol 217 – 18" transform="translate(3 62.608)">
              <rect id="Rectangle_20567" data-name="Rectangle 20567" width="26" height="7" rx="3.5" fill="#1eb1f4"/>
            </g>
            <g id="Group_13035" data-name="Group 13035" transform="translate(84.376 62.199)">
              <g id="_2" data-name=" 2" transform="translate(0 0.166)">
                <rect id="Rectangle_20567-2" data-name="Rectangle 20567" width="6" height="5" rx="2.5" transform="translate(-0.376 0.244)" fill="#fff"/>
              </g>
              <path id="facebook_1_" data-name="facebook (1)" d="M5.111,0H.8A.8.8,0,0,0,0,.8V5.109a.8.8,0,0,0,.8.8H2.925l0-2.11H2.381a.129.129,0,0,1-.129-.129l0-.68a.129.129,0,0,1,.129-.13h.547V2.2A1.074,1.074,0,0,1,4.071,1.021H4.63a.129.129,0,0,1,.129.129v.574a.129.129,0,0,1-.129.129H4.287c-.37,0-.442.176-.442.434v.569h.813A.129.129,0,0,1,4.787,3l-.081.68a.129.129,0,0,1-.128.114H3.849l0,2.11H5.111a.8.8,0,0,0,.8-.8V.8A.8.8,0,0,0,5.111,0Z" transform="translate(0.259 0)" fill="#475993"/>
            </g>
            <g id="Group_13036" data-name="Group 13036" transform="translate(74.008 62.199)">
              <g id="logotype" transform="translate(0 0)">
                <path id="Path_8613" data-name="Path 8613" d="M3.827,22.141a1.191,1.191,0,0,0-1.625.435L.161,26.1A1.189,1.189,0,0,0,2.222,27.29l2.041-3.527A1.187,1.187,0,0,0,3.827,22.141Z" transform="translate(0 -21.98)" fill="#f9bb04"/>
                <path id="Path_8614" data-name="Path 8614" d="M2.74,294.1a1.194,1.194,0,1,0-1.75,1.343A1.193,1.193,0,0,0,2.74,294.1Z" transform="translate(-0.391 -289.704)" fill="#a0ed83"/>
                <path id="Path_8615" data-name="Path 8615" d="M162.809,25.992l-2.041-3.527a1.189,1.189,0,0,0-2.061,1.187l2.041,3.527a1.189,1.189,0,0,0,2.061-1.187Z" transform="translate(-156.473 -21.87)" fill="#3b8ad8"/>
                <path id="Path_8616" data-name="Path 8616" d="M2.74,294.1a1.194,1.194,0,1,0-1.75,1.343A1.193,1.193,0,0,0,2.74,294.1Z" transform="translate(-0.391 -289.704)" fill="#34a852"/>
              </g>
            </g>
            <rect id="Rectangle_25923" data-name="Rectangle 25923" width="45" height="3" transform="translate(4 28.608)" fill="#43425c" opacity="0.1"/>
            <rect id="Rectangle_25924" data-name="Rectangle 25924" width="62" height="3" transform="translate(4 34.608)" fill="#43425c" opacity="0.1"/>
            <rect id="Rectangle_25925" data-name="Rectangle 25925" width="78" height="3" transform="translate(4 43.608)" fill="#43425c" opacity="0.1"/>
            <rect id="Rectangle_25926" data-name="Rectangle 25926" width="78" height="3" transform="translate(4 49.608)" fill="#43425c" opacity="0.1"/>
            <rect id="Rectangle_25927" data-name="Rectangle 25927" width="69" height="3" transform="translate(4 55.608)" fill="#43425c" opacity="0.1"/>
          </g>
          <g id="Group_19444" data-name="Group 19444" transform="translate(1040.497 700.015)">
            <g transform="matrix(1, 0, 0, 1, -410.5, -34.01)" filter="url(#Path_7016)">
              <path id="Path_7016-4" data-name="Path 7016" d="M0,0H81.1V60.827H0Z" transform="translate(410 34.01)" fill="#fff"/>
            </g>
            <line id="Line_441-2" data-name="Line 441" x2="77.724" transform="translate(1.972 35.483)" fill="none" stroke="#a0aabe" stroke-width="0.1"/>
            <path id="Path_6993-2" data-name="Path 6993" d="M0,0H3.379V81.1H0Z" transform="translate(-0.497 3.379) rotate(-90)" fill="#5586ef"/>
            <g id="Symbol_218_38" data-name="Symbol 218 – 38" transform="translate(1.503 52.985)">
              <rect id="Rectangle_20570" data-name="Rectangle 20570" width="22" height="7" rx="3.5" fill="#5586ef"/>
            </g>
            <g id="Group_13040" data-name="Group 13040" transform="translate(72.768 53.393)">
              <g id="_2-2" data-name=" 2" transform="translate(0.18 0.219)">
                <rect id="Rectangle_20567-3" data-name="Rectangle 20567" width="5" height="5" rx="2.5" transform="translate(-0.445 0.374)" fill="#fff"/>
              </g>
              <path id="facebook_1_2" data-name="facebook (1)" d="M4.388,0H.685A.683.683,0,0,0,0,.683v3.7a.683.683,0,0,0,.683.683H2.511l0-1.811H2.044a.111.111,0,0,1-.111-.111l0-.584a.111.111,0,0,1,.111-.111h.47V1.887A.922.922,0,0,1,3.5.876h.479a.111.111,0,0,1,.111.111V1.48a.111.111,0,0,1-.111.111H3.68c-.318,0-.379.151-.379.372v.488H4a.111.111,0,0,1,.11.124L4.04,3.16a.111.111,0,0,1-.11.1H3.3l0,1.811H4.388a.683.683,0,0,0,.683-.683V.683A.683.683,0,0,0,4.388,0Z" transform="translate(-0.002)" fill="#475993"/>
            </g>
            <g id="Group_13041" data-name="Group 13041" transform="translate(63.644 53.393)">
              <g id="logotype-2" data-name="logotype" transform="translate(0 0)">
                <path id="Path_8613-2" data-name="Path 8613" d="M3.285,22.119a1.022,1.022,0,0,0-1.4.373L.138,25.519a1.021,1.021,0,0,0,1.769,1.019l1.752-3.027A1.019,1.019,0,0,0,3.285,22.119Z" transform="translate(0 -21.981)" fill="#f9bb04"/>
                <path id="Path_8614-2" data-name="Path 8614" d="M2.408,293.978a1.025,1.025,0,1,0-1.5,1.153A1.024,1.024,0,0,0,2.408,293.978Z" transform="translate(-0.391 -290.201)" fill="#a0ed83"/>
                <path id="Path_8615-2" data-name="Path 8615" d="M162.206,25.408l-1.752-3.027a1.021,1.021,0,0,0-1.769,1.019l1.752,3.027a1.021,1.021,0,0,0,1.769-1.019Z" transform="translate(-156.767 -21.87)" fill="#3b8ad8"/>
                <path id="Path_8616-2" data-name="Path 8616" d="M2.408,293.978a1.025,1.025,0,1,0-1.5,1.153A1.024,1.024,0,0,0,2.408,293.978Z" transform="translate(-0.391 -290.201)" fill="#34a852"/>
              </g>
            </g>
            <rect id="Rectangle_25916" data-name="Rectangle 25916" width="38" height="3" transform="translate(20.503 24.985)" fill="#43425c" opacity="0.1"/>
            <rect id="Rectangle_25917" data-name="Rectangle 25917" width="66" height="3" transform="translate(3.503 37.985)" fill="#43425c" opacity="0.1"/>
            <rect id="Rectangle_25918" data-name="Rectangle 25918" width="66" height="3" transform="translate(3.503 42.985)" fill="#43425c" opacity="0.1"/>
            <g id="Group_19440" data-name="Group 19440" transform="translate(33.877 8.382)">
              <g transform="matrix(1, 0, 0, 1, -444.37, -42.4)" filter="url(#Path_4215-2)">
                <path id="Path_4215-4" data-name="Path 4215" d="M7.1,0A7.1,7.1,0,1,1,0,7.1,7.1,7.1,0,0,1,7.1,0Z" transform="translate(444.37 42.4)" fill="#fff"/>
              </g>
              <g id="Group_6971-2" data-name="Group 6971" transform="translate(3.154 3.563)">
                <g id="Group_3659-2" data-name="Group 3659">
                  <path id="Path_3266-2" data-name="Path 3266" d="M5.554,45.109c0,.144-.166.264-.368.264H.368c-.207,0-.368-.12-.368-.264V41.664c0-.144.166-.264.368-.264H5.181c.2,0,.368.12.368.264v3.445Zm0,0" transform="translate(0 -38.925)" fill="#0a4673"/>
                  <path id="Path_3267-2" data-name="Path 3267" d="M9.649,8.835A.925.925,0,1,1,8.725,7.9a.931.931,0,0,1,.925.935Zm0,0" transform="translate(-7.338 -7.433)" fill="#0a4673"/>
                  <path id="Path_3268-2" data-name="Path 3268" d="M49.212,1.268a1.156,1.156,0,1,1-2.312,0,1.156,1.156,0,1,1,2.312,0Zm0,0" transform="translate(-44.12 -0.1)" fill="#0a4673"/>
                  <path id="Path_3269-2" data-name="Path 3269" d="M99.355,40.04a.262.262,0,0,1-.249.234,5.983,5.983,0,0,1-1.606-1.48V37.08a5.417,5.417,0,0,1,1.606-1.48.234.234,0,0,1,.249.234Zm0,0" transform="translate(-91.721 -33.473)" fill="#0a4673"/>
                </g>
              </g>
            </g>
          </g>
          <g id="Group_19446" data-name="Group 19446" transform="translate(1174 710.111)">
            <g transform="matrix(1, 0, 0, 1, -544, -44.11)" filter="url(#Path_7016-2)">
              <path id="Path_7016-5" data-name="Path 7016" d="M0,0H68.129V51.1H0Z" transform="translate(544 44.11)" fill="#fff"/>
            </g>
            <line id="Line_441-3" data-name="Line 441" x2="65.29" transform="translate(1.561 29.806)" fill="none" stroke="#a0aabe" stroke-width="0.1"/>
            <path id="Path_6993-3" data-name="Path 6993" d="M0,0H2.839V68.129H0Z" transform="translate(0 2.839) rotate(-90)" fill="#5586ef"/>
            <g id="Symbol_218_39" data-name="Symbol 218 – 39" transform="translate(1.917 43.867)">
              <rect id="Rectangle_20570-2" data-name="Rectangle 20570" width="18.611" height="5.474" rx="2.737" fill="#5586ef"/>
            </g>
            <g id="Group_7758" data-name="Group 7758" transform="translate(28.103 4.817)">
              <g id="Group_6975" data-name="Group 6975" transform="translate(0 0)">
                <g transform="matrix(1, 0, 0, 1, -572.1, -48.93)" filter="url(#Path_4214)">
                  <path id="Path_4214-4" data-name="Path 4214" d="M5.961,0A5.961,5.961,0,1,1,0,5.961,5.961,5.961,0,0,1,5.961,0Z" transform="translate(572.1 48.93)" fill="#fff"/>
                </g>
              </g>
              <g id="audience" transform="translate(1.98 3.31)">
                <g id="Group_7586" data-name="Group 7586" transform="translate(2.473 2.86)">
                  <g id="Group_7585" data-name="Group 7585">
                    <path id="Path_6979" data-name="Path 6979" d="M150.409,282.23a1.51,1.51,0,0,0-.726-.185h-.625a1.518,1.518,0,0,0-1.518,1.518v.468H151.2v-.468A1.518,1.518,0,0,0,150.409,282.23Z" transform="translate(-147.54 -282.045)" fill="#0a4673"/>
                  </g>
                </g>
                <g id="Group_7588" data-name="Group 7588" transform="translate(5.725 2.444)">
                  <g id="Group_7587" data-name="Group 7587">
                    <path id="Path_6980" data-name="Path 6980" d="M342.923,257.225h-.52a1.5,1.5,0,0,0-.823.244,2.025,2.025,0,0,1,.912,1.69v.22h1.945v-.641A1.515,1.515,0,0,0,342.923,257.225Z" transform="translate(-341.58 -257.225)" fill="#0a4673"/>
                  </g>
                </g>
                <g id="Group_7590" data-name="Group 7590" transform="translate(0 2.444)">
                  <g id="Group_7589" data-name="Group 7589">
                    <path id="Path_6981" data-name="Path 6981" d="M2.033,257.225h-.52A1.515,1.515,0,0,0,0,258.739v.641H1.97v-.22a2.026,2.026,0,0,1,.9-1.682A1.5,1.5,0,0,0,2.033,257.225Z" transform="translate(0 -257.225)" fill="#0a4673"/>
                  </g>
                </g>
                <g id="Group_7592" data-name="Group 7592" transform="translate(5.788 0.167)">
                  <g id="Group_7591" data-name="Group 7591">
                    <path id="Path_6982" data-name="Path 6982" d="M346.356,121.416h-.008a1.077,1.077,0,0,0,.01,2.151h.008a.988.988,0,0,0,.725-.327,1.1,1.1,0,0,0,.286-.757A1.051,1.051,0,0,0,346.356,121.416Z" transform="translate(-345.337 -121.416)" fill="#0a4673"/>
                  </g>
                </g>
                <g id="Group_7594" data-name="Group 7594" transform="translate(0.753 0.167)">
                  <g id="Group_7593" data-name="Group 7593">
                    <path id="Path_6983" data-name="Path 6983" d="M45.957,121.416h-.008a1.077,1.077,0,0,0,.01,2.151h.008a.988.988,0,0,0,.725-.327,1.1,1.1,0,0,0,.287-.757A1.051,1.051,0,0,0,45.957,121.416Z" transform="translate(-44.938 -121.416)" fill="#0a4673"/>
                  </g>
                </g>
                <g id="Group_7596" data-name="Group 7596" transform="translate(3.128)">
                  <g id="Group_7595" data-name="Group 7595">
                    <path id="Path_6984" data-name="Path 6984" d="M187.776,111.445a1.212,1.212,0,0,0-1.176,1.243,1.251,1.251,0,0,0,.673,1.123,1.118,1.118,0,0,0,1.005,0,1.251,1.251,0,0,0,.673-1.123A1.212,1.212,0,0,0,187.776,111.445Z" transform="translate(-186.6 -111.445)" fill="#0a4673"/>
                  </g>
                </g>
              </g>
            </g>
            <g id="Group_13040-2" data-name="Group 13040" transform="translate(61.032 44.852)">
              <g id="_2-3" data-name=" 2" transform="translate(0.004 0.11)">
                <rect id="Rectangle_20567-4" data-name="Rectangle 20567" width="4.379" height="3.832" rx="1.916" transform="translate(0)" fill="#fff"/>
              </g>
              <path id="facebook_1_3" data-name="facebook (1)" d="M3.686,0H.576A.574.574,0,0,0,0,.574v3.11a.574.574,0,0,0,.574.574H2.11l0-1.522h-.4a.093.093,0,0,1-.093-.093l0-.49a.093.093,0,0,1,.093-.094H2.11V1.586A.774.774,0,0,1,2.936.736h.4a.093.093,0,0,1,.093.093v.414a.093.093,0,0,1-.093.093H3.092c-.267,0-.318.127-.318.313v.41H3.36a.093.093,0,0,1,.093.1l-.058.49a.093.093,0,0,1-.093.082H2.776l0,1.522h.913a.574.574,0,0,0,.574-.574V.574A.574.574,0,0,0,3.686,0Z" transform="translate(-0.002 0)" fill="#475993"/>
            </g>
            <g id="Group_13041-2" data-name="Group 13041" transform="translate(53.368 44.852)">
              <g id="logotype-3" data-name="logotype" transform="translate(0 0)">
                <path id="Path_8613-3" data-name="Path 8613" d="M2.76,22.1a.859.859,0,0,0-1.172.313L.116,24.953a.857.857,0,0,0,1.486.856l1.472-2.543A.856.856,0,0,0,2.76,22.1Z" transform="translate(0 -21.981)" fill="#f9bb04"/>
                <path id="Path_8614-3" data-name="Path 8614" d="M2.086,293.857a.861.861,0,1,0-1.262.968A.86.86,0,0,0,2.086,293.857Z" transform="translate(-0.392 -290.684)" fill="#a0ed83"/>
                <path id="Path_8615-3" data-name="Path 8615" d="M161.62,24.842,160.149,22.3a.857.857,0,0,0-1.486.856l1.472,2.543a.857.857,0,0,0,1.486-.856Z" transform="translate(-157.051 -21.87)" fill="#3b8ad8"/>
                <path id="Path_8616-3" data-name="Path 8616" d="M2.086,293.857a.861.861,0,1,0-1.262.968A.86.86,0,0,0,2.086,293.857Z" transform="translate(-0.392 -290.684)" fill="#34a852"/>
              </g>
            </g>
            <rect id="Rectangle_25916-2" data-name="Rectangle 25916" width="32.296" height="2.342" transform="translate(16.697 21.423)" fill="#43425c" opacity="0.1"/>
            <rect id="Rectangle_25917-2" data-name="Rectangle 25917" width="55.834" height="2.342" transform="translate(2.465 31.824)" fill="#43425c" opacity="0.1"/>
            <rect id="Rectangle_25918-2" data-name="Rectangle 25918" width="55.834" height="2.342" transform="translate(2.465 36.203)" fill="#43425c" opacity="0.1"/>
          </g>
          <g id="Group_19447" data-name="Group 19447" transform="translate(944 690.863)">
            <g transform="matrix(1, 0, 0, 1, -314, -24.86)" filter="url(#Path_7016-3)">
              <path id="Path_7016-6" data-name="Path 7016" d="M0,0H124.46V93.345H0Z" transform="translate(314 24.86)" fill="#fff"/>
            </g>
            <line id="Line_441-4" data-name="Line 441" x2="119.274" transform="translate(2.852 54.451)" fill="none" stroke="#a0aabe" stroke-width="0.1"/>
            <path id="Path_6993-4" data-name="Path 6993" d="M0,0H5.186V124.46H0Z" transform="translate(0 5.186) rotate(-90)" fill="#5586ef"/>
            <g id="Symbol_218_7" data-name="Symbol 218 – 7" transform="translate(3.503 81.937)">
              <rect id="Rectangle_20570-3" data-name="Rectangle 20570" width="34" height="8.201" rx="4.1" fill="#5586ef"/>
            </g>
            <g id="Group_7758-2" data-name="Group 7758" transform="translate(51.34 8.8)">
              <g id="Group_6975-2" data-name="Group 6975" transform="translate(0 0)">
                <g transform="matrix(1, 0, 0, 1, -365.34, -33.66)" filter="url(#Path_4214-2)">
                  <path id="Path_4214-5" data-name="Path 4214" d="M10.89,0A10.89,10.89,0,1,1,0,10.89,10.89,10.89,0,0,1,10.89,0Z" transform="translate(365.34 33.66)" fill="#fff"/>
                </g>
              </g>
              <g id="audience-2" data-name="audience" transform="translate(3.617 6.047)">
                <g id="Group_7586-2" data-name="Group 7586" transform="translate(4.518 5.224)">
                  <g id="Group_7585-2" data-name="Group 7585">
                    <path id="Path_6979-2" data-name="Path 6979" d="M152.782,282.382a2.759,2.759,0,0,0-1.327-.337h-1.142a2.773,2.773,0,0,0-2.773,2.773v.856h6.688v-.856A2.772,2.772,0,0,0,152.782,282.382Z" transform="translate(-147.54 -282.045)" fill="#0a4673"/>
                  </g>
                </g>
                <g id="Group_7588-2" data-name="Group 7588" transform="translate(10.459 4.464)">
                  <g id="Group_7587-2" data-name="Group 7587">
                    <path id="Path_6980-2" data-name="Path 6980" d="M344.033,257.225h-.949a2.746,2.746,0,0,0-1.5.446,3.7,3.7,0,0,1,1.666,3.087v.4H346.8V259.99A2.768,2.768,0,0,0,344.033,257.225Z" transform="translate(-341.58 -257.225)" fill="#0a4673"/>
                  </g>
                </g>
                <g id="Group_7590-2" data-name="Group 7590" transform="translate(0 4.464)">
                  <g id="Group_7589-2" data-name="Group 7589">
                    <path id="Path_6981-2" data-name="Path 6981" d="M3.714,257.225H2.765A2.768,2.768,0,0,0,0,259.99v1.171H3.6v-.4a3.7,3.7,0,0,1,1.642-3.072A2.747,2.747,0,0,0,3.714,257.225Z" transform="translate(0 -257.225)" fill="#0a4673"/>
                  </g>
                </g>
                <g id="Group_7592-2" data-name="Group 7592" transform="translate(10.574 0.305)">
                  <g id="Group_7591-2" data-name="Group 7591">
                    <path id="Path_6982-2" data-name="Path 6982" d="M347.2,121.416h-.015a1.968,1.968,0,0,0,.018,3.929h.015a1.8,1.8,0,0,0,1.324-.6,2.01,2.01,0,0,0,.523-1.382A1.919,1.919,0,0,0,347.2,121.416Z" transform="translate(-345.337 -121.416)" fill="#0a4673"/>
                  </g>
                </g>
                <g id="Group_7594-2" data-name="Group 7594" transform="translate(1.376 0.305)">
                  <g id="Group_7593-2" data-name="Group 7593">
                    <path id="Path_6983-2" data-name="Path 6983" d="M46.8,121.416h-.015a1.968,1.968,0,0,0,.018,3.929h.015a1.8,1.8,0,0,0,1.324-.6,2.009,2.009,0,0,0,.523-1.382A1.919,1.919,0,0,0,46.8,121.416Z" transform="translate(-44.938 -121.416)" fill="#0a4673"/>
                  </g>
                </g>
                <g id="Group_7596-2" data-name="Group 7596" transform="translate(5.714)">
                  <g id="Group_7595-2" data-name="Group 7595">
                    <path id="Path_6984-2" data-name="Path 6984" d="M188.748,111.445a2.214,2.214,0,0,0-2.148,2.27,2.285,2.285,0,0,0,1.23,2.052,2.043,2.043,0,0,0,1.837,0,2.284,2.284,0,0,0,1.23-2.052A2.214,2.214,0,0,0,188.748,111.445Z" transform="translate(-186.6 -111.445)" fill="#0a4673"/>
                  </g>
                </g>
              </g>
            </g>
            <g id="Group_13040-3" data-name="Group 13040" transform="translate(111.496 81.87)">
              <g id="_2-4" data-name=" 2" transform="translate(0.042 0)">
                <rect id="Rectangle_20567-5" data-name="Rectangle 20567" width="8" height="7" rx="3" transform="translate(-0.035 0.267)" fill="#fff"/>
              </g>
              <path id="facebook_1_4" data-name="facebook (1)" d="M6.733,0H1.05A1.048,1.048,0,0,0,0,1.048V6.731A1.048,1.048,0,0,0,1.05,7.779h2.8l0-2.78H3.135a.17.17,0,0,1-.17-.17l0-.9a.17.17,0,0,1,.17-.171h.721V2.9a1.415,1.415,0,0,1,1.51-1.552H6.1a.17.17,0,0,1,.17.17v.756a.17.17,0,0,1-.17.17H5.647c-.487,0-.582.232-.582.572v.75H6.136a.17.17,0,0,1,.169.19l-.106.9A.17.17,0,0,1,6.03,5H5.07l0,2.78H6.733A1.048,1.048,0,0,0,7.781,6.731V1.048A1.048,1.048,0,0,0,6.733,0Z" transform="translate(-0.002 0.066)" fill="#475993"/>
            </g>
            <g id="Group_13041-3" data-name="Group 13041" transform="translate(97.494 81.936)">
              <g id="logotype-4" data-name="logotype" transform="translate(0 0)">
                <path id="Path_8613-4" data-name="Path 8613" d="M5.042,22.192a1.568,1.568,0,0,0-2.141.572L.212,27.41a1.566,1.566,0,0,0,2.715,1.564l2.688-4.646A1.564,1.564,0,0,0,5.042,22.192Z" transform="translate(0 -21.98)" fill="#f9bb04"/>
                <path id="Path_8614-4" data-name="Path 8614" d="M3.484,294.384a1.573,1.573,0,1,0-2.305,1.769A1.572,1.572,0,0,0,3.484,294.384Z" transform="translate(-0.389 -288.588)" fill="#a0ed83"/>
                <path id="Path_8615-4" data-name="Path 8615" d="M164.162,27.3l-2.688-4.646a1.566,1.566,0,0,0-2.715,1.564l2.688,4.646a1.566,1.566,0,0,0,2.715-1.564Z" transform="translate(-155.815 -21.87)" fill="#3b8ad8"/>
                <path id="Path_8616-4" data-name="Path 8616" d="M3.484,294.384a1.573,1.573,0,1,0-2.305,1.769A1.572,1.572,0,0,0,3.484,294.384Z" transform="translate(-0.389 -288.588)" fill="#34a852"/>
              </g>
            </g>
            <rect id="Rectangle_25916-3" data-name="Rectangle 25916" width="59" height="4" transform="translate(30.503 39.137)" fill="#43425c" opacity="0.1"/>
            <rect id="Rectangle_25917-3" data-name="Rectangle 25917" width="102" height="4" transform="translate(4.503 58.137)" fill="#43425c" opacity="0.1"/>
            <rect id="Rectangle_25918-3" data-name="Rectangle 25918" width="84" height="4" transform="translate(4.503 66.137)" fill="#43425c" opacity="0.1"/>
          </g>
          <g id="Group_19448" data-name="Group 19448" transform="translate(1081.021 714.692)">
            <g transform="matrix(1, 0, 0, 1, -451.02, -48.69)" filter="url(#Path_35849)">
              <path id="Path_35849-2" data-name="Path 35849" d="M0,0H112.907V84.68H0Z" transform="translate(451 48.69)" fill="#fff"/>
            </g>
            <line id="Line_441-5" data-name="Line 441" x2="108.202" transform="translate(2.117 49.397)" fill="none" stroke="#a0aabe" stroke-width="0.1"/>
            <g id="Group_7620" data-name="Group 7620" transform="translate(2.352 74.308)">
              <path id="Path_3847" data-name="Path 3847" d="M3.257,0H24.97a3.121,3.121,0,0,1,3.257,2.965v.988A3.121,3.121,0,0,1,24.97,6.918H3.257A3.121,3.121,0,0,1,0,3.953V2.965A3.121,3.121,0,0,1,3.257,0Z" fill="#02c2b9"/>
            </g>
            <path id="Path_6991" data-name="Path 6991" d="M0,0H4.7V112.907H0Z" transform="translate(0 4.704) rotate(-90)" fill="#02c2b9"/>
            <g id="Group_7635" data-name="Group 7635" transform="translate(46.574 7.998)">
              <g transform="matrix(1, 0, 0, 1, -497.6, -56.69)" filter="url(#Path_4214-3)">
                <path id="Path_4214-6" data-name="Path 4214" d="M9.92,0A9.92,9.92,0,1,1,0,9.92,9.92,9.92,0,0,1,9.92,0Z" transform="translate(497.6 56.69)" fill="#fff"/>
              </g>
              <g id="Group_6969" data-name="Group 6969" transform="translate(4.409 4.408)">
                <g id="Group_3642" data-name="Group 3642" transform="translate(0 0)">
                  <path id="Path_3341" data-name="Path 3341" d="M8.814,7.4a2.073,2.073,0,0,0-1.636.8L4.009,6.435a2.062,2.062,0,0,0,0-1.36l3.17-1.763a2.066,2.066,0,1,0-.309-.571L3.7,4.5a2.057,2.057,0,1,0,.006,2.5l3.17,1.766a2.022,2.022,0,0,0-.12.687A2.064,2.064,0,1,0,8.814,7.4Zm0-6.748A1.414,1.414,0,1,1,7.4,2.062,1.416,1.416,0,0,1,8.814.649ZM2.067,7.167A1.414,1.414,0,1,1,3.484,5.753,1.416,1.416,0,0,1,2.067,7.167Zm6.747,3.7a1.414,1.414,0,1,1,1.417-1.414,1.416,1.416,0,0,1-1.417,1.414Zm0,0" fill="#0a4673"/>
                </g>
                <ellipse id="Ellipse_731" data-name="Ellipse 731" cx="1.713" cy="1.709" rx="1.713" ry="1.709" transform="translate(7.139 0.295)" fill="#0a4673"/>
                <ellipse id="Ellipse_732" data-name="Ellipse 732" cx="1.713" cy="1.709" rx="1.713" ry="1.709" transform="translate(7.139 7.701)" fill="#0a4673"/>
                <ellipse id="Ellipse_733" data-name="Ellipse 733" cx="1.713" cy="1.709" rx="1.713" ry="1.709" transform="translate(0.286 3.998)" fill="#0a4673"/>
              </g>
            </g>
            <g id="Group_12870" data-name="Group 12870" transform="translate(100.837 74.33)">
              <g id="_2-5" data-name=" 2" transform="translate(0 0.294)">
                <rect id="Rectangle_20567-6" data-name="Rectangle 20567" width="7" height="6" rx="3" transform="translate(0.142 -0.317)" fill="#fff"/>
              </g>
              <path id="facebook_1_5" data-name="facebook (1)" d="M6.108,0H.953A.951.951,0,0,0,0,.951V6.106a.951.951,0,0,0,.951.951H3.5l0-2.522H2.844a.155.155,0,0,1-.155-.154l0-.813a.155.155,0,0,1,.155-.155H3.5V2.628A1.283,1.283,0,0,1,4.865,1.22h.667a.155.155,0,0,1,.155.155V2.06a.155.155,0,0,1-.155.155H5.123c-.442,0-.528.21-.528.518v.68h.972a.155.155,0,0,1,.153.173l-.1.813a.155.155,0,0,1-.153.136H4.6l0,2.522H6.108a.951.951,0,0,0,.951-.951V.951A.951.951,0,0,0,6.108,0Z" transform="translate(0.307)" fill="#475993"/>
            </g>
            <g id="Group_12872" data-name="Group 12872" transform="translate(88.443 74.308)">
              <g id="logotype-5" data-name="logotype" transform="translate(0 0)">
                <path id="Path_8613-5" data-name="Path 8613" d="M4.574,22.172a1.423,1.423,0,0,0-1.942.519L.193,26.906a1.421,1.421,0,0,0,2.463,1.419L5.094,24.11A1.418,1.418,0,0,0,4.574,22.172Z" transform="translate(0 -21.98)" fill="#f9bb04"/>
                <path id="Path_8614-5" data-name="Path 8614" d="M3.2,294.276a1.427,1.427,0,1,0-2.091,1.6A1.426,1.426,0,0,0,3.2,294.276Z" transform="translate(-0.39 -289.018)" fill="#a0ed83"/>
                <path id="Path_8615-5" data-name="Path 8615" d="M163.641,26.8,161.2,22.581A1.421,1.421,0,0,0,158.739,24l2.439,4.215a1.421,1.421,0,0,0,2.463-1.419Z" transform="translate(-156.069 -21.87)" fill="#3b8ad8"/>
                <path id="Path_8616-5" data-name="Path 8616" d="M3.2,294.276a1.427,1.427,0,1,0-2.091,1.6A1.426,1.426,0,0,0,3.2,294.276Z" transform="translate(-0.39 -289.018)" fill="#34a852"/>
              </g>
            </g>
            <g id="_9" data-name=" 9" transform="translate(32.602 74.141)">
              <rect id="Rectangle_20567-7" data-name="Rectangle 20567" width="34" height="7" rx="3.5" transform="translate(0.376 0.166)" fill="#7655c9"/>
            </g>
            <rect id="Rectangle_25919" data-name="Rectangle 25919" width="77" height="4" transform="translate(4.979 33.308)" fill="#43425c" opacity="0.1"/>
            <rect id="Rectangle_25920" data-name="Rectangle 25920" width="80" height="4" transform="translate(4.979 40.308)" fill="#43425c" opacity="0.1"/>
            <rect id="Rectangle_25921" data-name="Rectangle 25921" width="92" height="4" transform="translate(3.979 52.308)" fill="#43425c" opacity="0.1"/>
            <rect id="Rectangle_25922" data-name="Rectangle 25922" width="92" height="4" transform="translate(3.979 59.308)" fill="#43425c" opacity="0.1"/>
          </g>
        </g>
      </g>
    </g>
  </g>
</svg>
