<svg xmlns="http://www.w3.org/2000/svg" xmlns:xlink="http://www.w3.org/1999/xlink" width="648" height="168" viewBox="0 0 648 168">
  <defs>
    <filter id="Rectangle_26249" x="0" y="0" width="648" height="168" filterUnits="userSpaceOnUse">
      <feOffset dy="3" input="SourceAlpha"/>
      <feGaussianBlur stdDeviation="3" result="blur"/>
      <feFlood flood-opacity="0.161"/>
      <feComposite operator="in" in2="blur"/>
      <feComposite in="SourceGraphic"/>
    </filter>
    <filter id="acqusition_line" x="276.049" y="87.603" width="245.059" height="51.716" filterUnits="userSpaceOnUse">
      <feOffset dy="3" input="SourceAlpha"/>
      <feGaussianBlur stdDeviation="3" result="blur-2"/>
      <feFlood flood-opacity="0.161"/>
      <feComposite operator="in" in2="blur-2"/>
      <feComposite in="SourceGraphic"/>
    </filter>
    <filter id="acqusition_line-2" x="413.167" y="64.962" width="198.597" height="74.917" filterUnits="userSpaceOnUse">
      <feOffset dy="3" input="SourceAlpha"/>
      <feGaussianBlur stdDeviation="3" result="blur-3"/>
      <feFlood flood-opacity="0.161"/>
      <feComposite operator="in" in2="blur-3"/>
      <feComposite in="SourceGraphic"/>
    </filter>
    <filter id="acqusition_line-3" x="314.342" y="58.811" width="297.364" height="80.292" filterUnits="userSpaceOnUse">
      <feOffset dy="3" input="SourceAlpha"/>
      <feGaussianBlur stdDeviation="3" result="blur-4"/>
      <feFlood flood-opacity="0.161"/>
      <feComposite operator="in" in2="blur-4"/>
      <feComposite in="SourceGraphic"/>
    </filter>
    <filter id="acqusition_line-4" x="522.058" y="68.374" width="92.808" height="70.67" filterUnits="userSpaceOnUse">
      <feOffset dy="3" input="SourceAlpha"/>
      <feGaussianBlur stdDeviation="3" result="blur-5"/>
      <feFlood flood-opacity="0.161"/>
      <feComposite operator="in" in2="blur-5"/>
      <feComposite in="SourceGraphic"/>
    </filter>
    <filter id="acqusition_line-5" x="299.856" y="41.721" width="289.413" height="97.313" filterUnits="userSpaceOnUse">
      <feOffset dy="3" input="SourceAlpha"/>
      <feGaussianBlur stdDeviation="3" result="blur-6"/>
      <feFlood flood-opacity="0.161"/>
      <feComposite operator="in" in2="blur-6"/>
      <feComposite in="SourceGraphic"/>
    </filter>
  </defs>
  <g id="Group_20075" data-name="Group 20075" transform="translate(4120 -3146)">
    <g transform="matrix(1, 0, 0, 1, -4120, 3146)" filter="url(#Rectangle_26249)">
      <rect id="Rectangle_26249-2" data-name="Rectangle 26249" width="630" height="150" rx="10" transform="translate(9 6)" fill="#fff"/>
    </g>
    <g id="Group_19852" data-name="Group 19852" transform="translate(-4754 2485)">
      <path id="Rectangle_23721" data-name="Rectangle 23721" d="M10,0H210a0,0,0,0,1,0,0V150a0,0,0,0,1,0,0H10A10,10,0,0,1,0,140V10A10,10,0,0,1,10,0Z" transform="translate(643 667)" fill="#f3f7ff"/>
      <text id="Creative_Insights" data-name="Creative 
Insights" transform="translate(713 737)" fill="#43425d" font-size="20" font-family="Helvetica"><tspan x="0" y="0">Creative </tspan><tspan x="0" y="24">Insights</tspan></text>
      <g id="picture" transform="translate(668 677.178)">
        <g id="Group_11282" data-name="Group 11282" transform="translate(0 54.821)">
          <path id="Path_8378" data-name="Path 8378" d="M24.388,55.433a2.006,2.006,0,0,0-1.471-.612H2.083a2.007,2.007,0,0,0-1.471.612A2.006,2.006,0,0,0,0,56.9V72.737a2.006,2.006,0,0,0,.612,1.471,2.007,2.007,0,0,0,1.471.612H22.917A2.09,2.09,0,0,0,25,72.737V56.9A2.006,2.006,0,0,0,24.388,55.433Zm-1.055,17.3a.421.421,0,0,1-.417.416H2.083a.422.422,0,0,1-.417-.416V56.9a.422.422,0,0,1,.417-.416H22.917a.422.422,0,0,1,.416.416V72.737Z" transform="translate(0 -54.821)" fill="#35344b"/>
          <path id="Path_8379" data-name="Path 8379" d="M75.6,132.91a2.489,2.489,0,1,0-1.771-.729A2.411,2.411,0,0,0,75.6,132.91Z" transform="translate(-69.762 -124.577)" fill="#35344b"/>
          <path id="Path_8380" data-name="Path 8380" d="M79.342,180.254l-2.083-2.083-4.167,4.167v2.5H91.425V179l-5.417-5.417Z" transform="translate(-69.759 -168.171)" fill="#35344b"/>
        </g>
      </g>
    </g>
    <g id="Group_19853" data-name="Group 19853" transform="translate(-5091 2316)">
      <g id="Group_19460" data-name="Group 19460" transform="translate(574 169)">
        <path id="Rectangle_23721-2" data-name="Rectangle 23721" d="M0,0H410a10,10,0,0,1,10,10V140a10,10,0,0,1-10,10H0a0,0,0,0,1,0,0V0A0,0,0,0,1,0,0Z" transform="translate(616 667)" fill="#fff"/>
      </g>
      <g id="Group_19461" data-name="Group 19461" transform="translate(15329 3316.815)">
        <rect id="background" width="399" height="120" transform="translate(-14134 -2465.815)" fill="#fcfcfc"/>
        <g id="may" transform="translate(-14105.158 -2453.616)">
          <g id="paskii" transform="translate(9.116 0)">
            <g id="Group_1390" data-name="Group 1390" transform="translate(0 0)">
              <path id="Path_191" data-name="Path 191" d="M0-38.7v-95.41" transform="translate(0 134.112)" fill="none" stroke="#ebebeb" stroke-width="0.3"/>
            </g>
            <g id="Group_1376" data-name="Group 1376" transform="translate(170.81 0)">
              <path id="Path_197" data-name="Path 197" d="M0-38.7v-95.41" transform="translate(0 134.112)" fill="none" stroke="#ebebeb" stroke-width="0.3"/>
            </g>
            <g id="Group_1389" data-name="Group 1389" transform="translate(24.25 0)">
              <path id="Path_199" data-name="Path 199" d="M0-38.7v-95.41" transform="translate(0 134.112)" fill="none" stroke="#ebebeb" stroke-width="0.3"/>
            </g>
            <g id="Group_1388" data-name="Group 1388" transform="translate(49.556 0)">
              <path id="Path_200" data-name="Path 200" d="M0-38.7v-95.41" transform="translate(0 134.112)" fill="none" stroke="#ebebeb" stroke-width="0.3"/>
            </g>
            <g id="Group_1386" data-name="Group 1386" transform="translate(73.807 0)">
              <path id="Path_201" data-name="Path 201" d="M0-38.7v-95.41" transform="translate(0 134.112)" fill="none" stroke="#ebebeb" stroke-width="0.3"/>
            </g>
            <g id="Group_1381" data-name="Group 1381" transform="translate(122.309 0)">
              <path id="Path_202" data-name="Path 202" d="M0-38.7v-95.41" transform="translate(0 134.112)" fill="none" stroke="#ebebeb" stroke-width="0.3"/>
            </g>
            <g id="Group_1377" data-name="Group 1377" transform="translate(146.559 0)">
              <path id="Path_203" data-name="Path 203" d="M0-38.7v-95.41" transform="translate(0 134.112)" fill="none" stroke="#ebebeb" stroke-width="0.3"/>
            </g>
            <g id="Group_1373" data-name="Group 1373" transform="translate(195.06 0)">
              <path id="Path_204" data-name="Path 204" d="M0-38.7v-95.41" transform="translate(0 134.112)" fill="none" stroke="#ebebeb" stroke-width="0.3"/>
            </g>
            <g id="Group_1384" data-name="Group 1384" transform="translate(98.057 0)">
              <path id="Path_205" data-name="Path 205" d="M0-38.7v-95.41" transform="translate(0 134.112)" fill="none" stroke="#ebebeb" stroke-width="0.3"/>
            </g>
            <g id="Group_1368" data-name="Group 1368" transform="translate(219.312 0)">
              <path id="Path_208" data-name="Path 208" d="M0-38.7v-95.41" transform="translate(0 134.112)" fill="none" stroke="#ebebeb" stroke-width="0.3"/>
            </g>
            <g id="Group_1363" data-name="Group 1363" transform="translate(267.812 0)">
              <path id="Path_212" data-name="Path 212" d="M0-38.7v-95.41" transform="translate(0 134.112)" fill="none" stroke="#ebebeb" stroke-width="0.3"/>
            </g>
            <g id="Group_1371" data-name="Group 1371" transform="translate(243.562 0)">
              <path id="Path_213" data-name="Path 213" d="M0-38.7v-95.41" transform="translate(0 134.112)" fill="none" stroke="#ebebeb" stroke-width="0.3"/>
            </g>
            <g id="Group_1364" data-name="Group 1364" transform="translate(292.064 0)">
              <path id="Path_214" data-name="Path 214" d="M0-38.7v-95.41" transform="translate(0 134.112)" fill="none" stroke="#ebebeb" stroke-width="0.3"/>
            </g>
            <g id="Group_1355" data-name="Group 1355" transform="translate(316.315 0)">
              <path id="Path_218" data-name="Path 218" d="M0-38.7v-95.41" transform="translate(0 134.112)" fill="none" stroke="#ebebeb" stroke-width="0.3"/>
            </g>
            <g id="Group_1356" data-name="Group 1356" transform="translate(340.565 0)">
              <path id="Path_219" data-name="Path 219" d="M0-38.7v-95.41" transform="translate(0 134.112)" fill="none" stroke="#ebebeb" stroke-width="0.3"/>
            </g>
          </g>
          <g id="Group_1396" data-name="Group 1396" transform="translate(0 5.714)">
            <line id="Line_153" data-name="Line 153" x2="355.648" transform="translate(0 88.005)" fill="none" stroke="#ebebeb" stroke-width="0.3"/>
            <line id="Line_154" data-name="Line 154" x2="355.648" transform="translate(0 65.654)" fill="none" stroke="#ebebeb" stroke-width="0.3"/>
            <line id="Line_155" data-name="Line 155" x2="355.648" transform="translate(0 44.002)" fill="none" stroke="#ebebeb" stroke-width="0.3"/>
            <line id="Line_156" data-name="Line 156" x2="355.648" transform="translate(0 21.652)" fill="none" stroke="#ebebeb" stroke-width="0.3"/>
            <line id="Line_157" data-name="Line 157" x2="355.648" fill="none" stroke="#ebebeb" stroke-width="0.3"/>
          </g>
        </g>
        <path id="retargeting_line" d="M0-26.5S23.07-45.972,31.877-47.714s9.4,2.687,35.073,1.98,39.743-21.446,73.682-21.779,40.893,16.155,62.074,20.444,9.506-4.855,45.869-6.8,99.581-.968,99.581-.968" transform="translate(-14103.46 -2339.36)" fill="none" stroke="#6994f1" stroke-width="1.5"/>
        <g transform="matrix(1, 0, 0, 1, -14358, -2486.82)" filter="url(#acqusition_line)">
          <path id="acqusition_line-6" data-name="acqusition_line" d="M62.764,20.889S75.2-6.786,95.585-10.82,122.323-.369,144.305,4.752s51.525-2.44,51.525-2.44,12.364-2.17,35.632,2.44,57.439,16,57.439,16" transform="translate(222.97 105.86)" fill="rgba(0,0,0,0)" stroke="#ef5228" stroke-width="1.5"/>
        </g>
        <g transform="matrix(1, 0, 0, 1, -14358, -2486.82)" filter="url(#acqusition_line-2)">
          <path id="acqusition_line-7" data-name="acqusition_line" d="M62.764,44.53S71.87-3.332,86.8-10.309s19.58,18.074,35.676,26.931S160.2,12.4,160.2,12.4s9.054-3.752,26.092,4.22,56.236,12.931,56.236,12.931" transform="translate(360.14 83.21)" fill="rgba(0,0,0,0)" stroke="#9f81eb" stroke-width="1.5"/>
        </g>
        <g transform="matrix(1, 0, 0, 1, -14358, -2486.82)" filter="url(#acqusition_line-3)">
          <path id="acqusition_line-8" data-name="acqusition_line" d="M62.764,86.454s20.5-37.62,40.885-47.517,12.582,6.189,34.564,18.753,37.595-1.1,59.384-1.1,35.887-24.133,59.154-12.824S341.14,25.194,341.14,25.194" transform="translate(261.24 40.29)" fill="rgba(0,0,0,0)" stroke="#515fbc" stroke-width="1.5"/>
        </g>
        <g transform="matrix(1, 0, 0, 1, -14358, -2486.82)" filter="url(#acqusition_line-4)">
          <path id="acqusition_line-9" data-name="acqusition_line" d="M62.764,95.893S71.015,76.955,84.655,67.72s19.4-2.04,32.669-8.768c12.88-6.533,18.951-14.991,18.951-14.991" transform="translate(468.98 30.85)" fill="rgba(0,0,0,0)" stroke="#48c6b6" stroke-width="1.5"/>
        </g>
        <g transform="matrix(1, 0, 0, 1, -14358, -2486.82)" filter="url(#acqusition_line-5)">
          <path id="acqusition_line-10" data-name="acqusition_line" d="M62.764,66.793S77.626-.08,101.988-9.828,133.944,15.425,160.215,27.8s61.579-5.9,61.579-5.9,14.777-5.243,42.585,5.9S333.026,66.46,333.026,66.46" transform="translate(246.82 59.95)" fill="rgba(0,0,0,0)" stroke="#53c1f3" stroke-width="1.5"/>
        </g>
      </g>
    </g>
  </g>
</svg>
