<svg xmlns="http://www.w3.org/2000/svg" xmlns:xlink="http://www.w3.org/1999/xlink" width="2843.105" height="1312.912" viewBox="0 0 2843.105 1312.912">
  <defs>
    <filter id="acqusition_line" x="406.384" y="645.307" width="2436.722" height="296.318" filterUnits="userSpaceOnUse">
      <feOffset dy="3" input="SourceAlpha"/>
      <feGaussianBlur stdDeviation="3" result="blur"/>
      <feFlood flood-opacity="0.161"/>
      <feComposite operator="in" in2="blur"/>
      <feComposite in="SourceGraphic"/>
    </filter>
  </defs>
  <g id="Group_24263" data-name="Group 24263" transform="translate(-20653.885 -15437.669)">
    <path id="retargeting_line" d="M-326.1,973.753C-192.972,948.629,55.787,872.8,197.484,745.482S676.6,694.611,908.549,595.743s263.8-2.682,465.939-143.935c153.443-114.646,367.793-137.871,475.316-272.045,85.266-106.4,230.023-188.3,285.924-212.809,14.337-6.286,171.306-77.444,251.926-95.813" transform="translate(21096.494 15650.223) rotate(3)" fill="none" stroke="#6994f1" stroke-width="6"/>
    <path id="acqusition_line-2" data-name="acqusition_line" d="M-459.626,1093.673c139.314-5.177,496.538-61.469,514.687-65.28,66.438-13.952,140.228-40.632,298.781-127.132,200.954-109.632,387.7,136.308,650.684-22.133s495.985-98.837,632.5-386.681,285.007-337.245,399.2-382.35,259.48-75.108,259.48-75.108" transform="translate(21173.387 15430.486) rotate(3)" fill="none" stroke="#02c2b9" stroke-linecap="round" stroke-width="6" opacity="0.7"/>
    <g transform="matrix(1, 0, 0, 1, 20653.88, 15437.67)" filter="url(#acqusition_line)">
      <path id="acqusition_line-3" data-name="acqusition_line" d="M8.061,153.875S71.6,9.249,305.284,9.658c.372,0,7.487-.175,23.487,1,74.079,2.988,338.6,68.155,383.066,78.227,3.222.73,22.811,3.633,23.073,3.634C902.1,100.95,965.173,13.651,1143.555,13.656c171.423,0,536.283,2.894,553.642-4,122.335-1.926,210.281-130.476,354.822-133.014S2425.724,4.668,2425.724,4.668" transform="translate(408.01 775.45)" fill="rgba(0,0,0,0)" stroke="#ef5228" stroke-width="1.5" stroke-dasharray="4"/>
    </g>
  </g>
</svg>
