<svg xmlns="http://www.w3.org/2000/svg" width="55.241" height="37.024" viewBox="0 0 55.241 37.024"><g transform="translate(-69.558 -227.6)"><g transform="translate(69.558 227.6)"><path d="M19.907-178.844a27.744,27.744,0,0,0-6.014,7.563,18.061,18.061,0,0,0-1.2,15.154c1.312,3.686,3.472,6.771,7.3,10.485l2.351,2.266,1.312-1.174c.711-.655,7.053-6.635,14.133-13.3,7.08-6.689,13.231-12.369,13.669-12.642,3.909-2.457,8.994,3.986,9.6,12.178a22.1,22.1,0,0,1-1.422,8.956,27.99,27.99,0,0,1-2.023,3.659,6.107,6.107,0,0,0-1.121,2.1c.273.191,2.87-2.048,4.483-3.877,4.319-4.86,6.424-10.73,5.686-16-.711-5.051-2.761-8.846-7.436-13.652l-3.2-3.276-1.176,1.065c-.656.573-7.08,6.662-14.27,13.515-7.19,6.826-13.477,12.642-13.942,12.915-1.914,1.092-4.429-.109-6.4-3-4.292-6.389-4.046-15.836.6-22.362.683-.928,1.121-1.775,1.011-1.857A5.421,5.421,0,0,0,19.907-178.844Z" transform="translate(-11.558 180.4)" fill="#121825"/><path d="M95.668-82.852l-.492,1.176,1.176.082a6.7,6.7,0,0,1,1.2.164c0,.055-.574,1.367-1.258,2.925-.711,1.558-1.5,3.362-1.777,4.019L94-73.311l1.832-.082,1.8-.082,1.832-3.964,1.8-3.964,1.093-.082c.957-.082,1.176-.219,1.558-1.039a4.428,4.428,0,0,0,.465-1.2c0-.164-1.64-.273-4.1-.273H96.16Z" transform="translate(-71.462 110.308)" fill="#121825"/><path d="M124.4-83.4c-.137.355-1.176,2.706-2.324,5.249C120.93-75.635,120-73.5,120-73.448a18.1,18.1,0,0,0,2.734.109h2.734l.683-1.367.683-1.367h-.957c-.519,0-.957-.055-.957-.137,0-.055.738-1.777,1.64-3.827s1.64-3.773,1.64-3.827A5.64,5.64,0,0,0,126.424-84C124.811-84,124.62-83.945,124.4-83.4Z" transform="translate(-90.355 110.308)" fill="#121825"/><path d="M147.636-79.025c-1.23,2.761-2.3,5.167-2.378,5.331-.109.273.328.355,1.668.355h1.8l1.2-2.6c1.148-2.433,1.258-2.6,2.05-2.6a1.2,1.2,0,0,0,1.258-.82c.6-1.148.519-1.367-.437-1.367-.738,0-.82-.055-.519-.41a2.23,2.23,0,0,1,1.531-.41c1.121,0,1.23-.082,1.75-1.094a7.259,7.259,0,0,0,.547-1.23A17.136,17.136,0,0,0,152.994-84H149.9Z" transform="translate(-108.696 110.308)" fill="#121825"/></g></g></svg>