<svg id="Ebene_1" data-name="Ebene 1" xmlns="http://www.w3.org/2000/svg" viewBox="0 0 286.91 286.92"><defs><style>.cls-1{fill:#fff;}</style></defs><path class="cls-1" d="M129.36,140.71C62.25,147.34,7.9,201.69,1.28,268.8A143.53,143.53,0,0,0,158.65,426.18c67.12-6.71,121.38-61,128.09-128.09A143.57,143.57,0,0,0,129.36,140.71ZM60.07,208.56a1.06,1.06,0,0,1,1.71-.83l4.42,3.46,77.15,62.11a1.07,1.07,0,0,0,1.33,0l77.15-62.11,4.41-3.46a1.05,1.05,0,0,1,1.71.83v6.36a2.12,2.12,0,0,1-.76,1.62l-.79.66-81.72,66.3a1,1,0,0,1-1.33,0L61.63,217.2l-.79-.66a2.1,2.1,0,0,1-.77-1.62ZM228,358.34a1.06,1.06,0,0,1-1.75.8l-20.63-17.9a2.11,2.11,0,0,1-.73-1.59L204.7,276a1.06,1.06,0,0,0-1.73-.82l-58.28,47.37a1.08,1.08,0,0,1-1.34,0l-58.3-47.37a1.05,1.05,0,0,0-1.72.82l-.14,63.64a2.15,2.15,0,0,1-.73,1.59l-20.64,17.9a1.06,1.06,0,0,1-1.75-.8v-6.89a2.14,2.14,0,0,1,.72-1.59l14.08-12.34a2.1,2.1,0,0,0,.72-1.59l-.06-70.11v-5.67a1.06,1.06,0,0,1,1.72-.83l3.94,3.17,62.15,49.78a1.05,1.05,0,0,0,1.32,0l62.17-49.78,3.94-3.17a1.06,1.06,0,0,1,1.72.83v5.67h0l-.07,70.11a2.14,2.14,0,0,0,.72,1.59l14.08,12.34a2.1,2.1,0,0,1,.72,1.59Zm-.06-19.26a1.06,1.06,0,0,1-1.74.81l-5.1-4.3a2.12,2.12,0,0,1-.75-1.61l-.14-89.52a1.06,1.06,0,0,0-1.73-.82l-73.75,59.83a1.07,1.07,0,0,1-1.33,0L69.59,243.64a1.05,1.05,0,0,0-1.72.82L67.72,334a2.09,2.09,0,0,1-.75,1.61l-5.09,4.3a1.06,1.06,0,0,1-1.74-.81l-.08-106.27h0v-4.28a1.06,1.06,0,0,1,1.71-.83l4.42,3.46,77.15,62.11a1.07,1.07,0,0,0,1.33,0l77.15-62.11,4.41-3.46a1.05,1.05,0,0,1,1.71.83v4.28h0Z" transform="translate(-0.56 -139.99)"/></svg>