<svg xmlns="http://www.w3.org/2000/svg" width="19.822" height="19.822" viewBox="0 0 19.822 19.822">
  <path id="premium" d="M14.641,6.583l-2.553.851-1.747-2.62a.759.759,0,0,0-1.262,0L7.332,7.434,4.78,6.583a.759.759,0,0,0-.984.868c1.127,5.413.953,5.27,1.242,5.558a6.616,6.616,0,0,0,9.346,0c.288-.288.116-.157,1.242-5.558A.759.759,0,0,0,14.641,6.583ZM13.15,12.091a5.1,5.1,0,0,1-6.879,0L5.54,8.436,7.4,9.057a.759.759,0,0,0,.871-.3L9.711,6.6l1.437,2.156a.759.759,0,0,0,.871.3l1.862-.621ZM9.711,0a9.711,9.711,0,1,0,9.711,9.711A9.706,9.706,0,0,0,9.711,0Zm0,17.9A8.194,8.194,0,1,1,17.9,9.711,8.189,8.189,0,0,1,9.711,17.9Zm0,0" transform="translate(0.2 0.2)" fill="#a0aabe" stroke="#a0aabe" stroke-width="0.4"/>
</svg>
