<svg id="chart-bar-32" xmlns="http://www.w3.org/2000/svg" width="17.763" height="17.762" viewBox="0 0 17.763 17.762">
  <path id="Union_8" data-name="Union 8" d="M-479.571-6.241a1.049,1.049,0,0,1-.8-.305,1.049,1.049,0,0,1-.305-.8V-17.34a1.049,1.049,0,0,1,.305-.8,1.049,1.049,0,0,1,.8-.305h2.22a1.049,1.049,0,0,1,.8.305,1.049,1.049,0,0,1,.305.8v9.989a1.049,1.049,0,0,1-.305.8,1.049,1.049,0,0,1-.8.305Zm-6.659,0a1.048,1.048,0,0,1-.805-.3,1.048,1.048,0,0,1-.3-.805V-22.89a1.049,1.049,0,0,1,.305-.8,1.049,1.049,0,0,1,.8-.305h2.22a1.049,1.049,0,0,1,.8.305,1.049,1.049,0,0,1,.305.8V-7.351a1.047,1.047,0,0,1-.3.805,1.048,1.048,0,0,1-.8.3Zm-6.66,0a1.049,1.049,0,0,1-.8-.305,1.049,1.049,0,0,1-.305-.8v-4.44a1.049,1.049,0,0,1,.305-.8,1.049,1.049,0,0,1,.8-.305h2.22a1.05,1.05,0,0,1,.8.306,1.05,1.05,0,0,1,.306.8v4.44a1.049,1.049,0,0,1-.305.8,1.049,1.049,0,0,1-.8.305Z" transform="translate(494.002 24.002)" fill="#48c6b6"/>
</svg>
