<svg id="grammar" xmlns="http://www.w3.org/2000/svg" width="18.869" height="18.083" viewBox="0 0 18.869 18.083">
  <path id="Path_8381" data-name="Path 8381" d="M9.573,22.256h2.359A1.574,1.574,0,0,0,13.5,20.683V18.329a.777.777,0,0,0-.024-.2.777.777,0,0,0,.024-.2v-1.97A1.968,1.968,0,0,0,11.538,14H9.966a1.952,1.952,0,0,0-1.39.576.786.786,0,1,0,1.11,1.11.392.392,0,0,1,.277-.111h1.573a.394.394,0,0,1,.393.393v1.18H10.359A2.361,2.361,0,0,0,8,19.5v1.18a1.574,1.574,0,0,0,1.573,1.573Zm0-2.751a.787.787,0,0,1,.786-.786h1.573v1.966H9.573Z" transform="translate(-8 -12.427)" fill="#48c6b6"/>
  <path id="Path_8382" data-name="Path 8382" d="M28.538,13.931H26.573V10.786a.786.786,0,1,0-1.573,0v8.256a.787.787,0,0,0,.786.786h2.751A1.968,1.968,0,0,0,30.5,17.862V15.9a1.968,1.968,0,0,0-1.965-1.966Zm.393,3.931a.394.394,0,0,1-.393.393H26.573V15.5h1.966a.394.394,0,0,1,.393.393Z" transform="translate(-18.317 -9.999)" fill="#48c6b6"/>
  <path id="Path_8383" data-name="Path 8383" d="M46.717,23.106H44.751a1.181,1.181,0,0,1-1.18-1.179V20.752a1.181,1.181,0,0,1,1.18-1.18h1.966a.786.786,0,1,0,0-1.573H44.751A2.755,2.755,0,0,0,42,20.752V21.93a2.755,2.755,0,0,0,2.751,2.751h1.966a.786.786,0,0,0,0-1.573Z" transform="translate(-28.634 -14.855)" fill="#48c6b6"/>
  <path id="Path_8384" data-name="Path 8384" d="M25.325,45.073a.784.784,0,0,0,.555-.231l5.5-5.5a.786.786,0,0,0-1.11-1.11l-4.948,4.946-2.982-2.982a.786.786,0,0,0-1.11,1.11l3.537,3.541a.784.784,0,0,0,.555.23Z" transform="translate(-15.887 -26.989)" fill="#48c6b6"/>
</svg>
