<svg xmlns="http://www.w3.org/2000/svg" width="20" height="16" viewBox="0 0 20 16">
  <g id="picture" transform="translate(0 -54.821)">
    <g id="Group_11282" data-name="Group 11282" transform="translate(0 54.821)">
      <path id="Path_8378" data-name="Path 8378" d="M19.51,55.311a1.6,1.6,0,0,0-1.177-.49H1.667a1.605,1.605,0,0,0-1.177.49A1.6,1.6,0,0,0,0,56.488V69.154a1.6,1.6,0,0,0,.49,1.177,1.605,1.605,0,0,0,1.177.49H18.333A1.672,1.672,0,0,0,20,69.154V56.488A1.6,1.6,0,0,0,19.51,55.311Zm-.844,13.844a.337.337,0,0,1-.333.333H1.667a.337.337,0,0,1-.333-.333V56.487a.338.338,0,0,1,.333-.333H18.333a.337.337,0,0,1,.333.333V69.154Z" transform="translate(0 -54.821)" fill="#a0aabe"/>
      <path id="Path_8379" data-name="Path 8379" d="M75.1,131.91a1.991,1.991,0,1,0-1.417-.583A1.929,1.929,0,0,0,75.1,131.91Z" transform="translate(-70.429 -125.243)" fill="#a0aabe"/>
      <path id="Path_8380" data-name="Path 8380" d="M78.092,178.92l-1.667-1.667-3.333,3.333v2H87.759V177.92l-4.333-4.333Z" transform="translate(-70.425 -169.254)" fill="#a0aabe"/>
    </g>
  </g>
</svg>
