<svg xmlns="http://www.w3.org/2000/svg" width="30.059" height="30.001" viewBox="0 0 30.059 30.001">
  <g id="scaling_strategies" data-name="scaling strategies" transform="translate(0.03 0)">
    <path id="Path_37999" data-name="Path 37999" d="M33.637,14.07a2.622,2.622,0,0,0,1.825-.742l2.6,1.3a2.587,2.587,0,0,0-.032.32,2.637,2.637,0,1,0,5.273,0,2.607,2.607,0,0,0-.264-1.13l3.529-3.531a2.6,2.6,0,0,0,1.129.265,2.64,2.64,0,0,0,2.637-2.638,2.6,2.6,0,0,0-.132-.781l3.066-2.3a2.637,2.637,0,1,0-1.177-2.194,2.6,2.6,0,0,0,.132.781l-3.066,2.3a2.626,2.626,0,0,0-3.832,3.324L41.8,12.576a2.59,2.59,0,0,0-2.954.477l-2.6-1.3a2.584,2.584,0,0,0,.032-.32,2.637,2.637,0,1,0-2.637,2.638Zm0,0" transform="translate(-29.183)" fill="#a0aabe"/>
    <path id="Path_38000" data-name="Path 38000" d="M29.121,169.449h-.937v-18.57A.878.878,0,0,0,27.3,150H23.789a.878.878,0,0,0-.879.879v18.57H21.152v-13.3a.878.878,0,0,0-.879-.879H16.758a.878.878,0,0,0-.879.879v13.3H14.121v-6.268a.878.878,0,0,0-.879-.879H9.727a.878.878,0,0,0-.879.879v6.268H7.09v-9.783a.878.878,0,0,0-.879-.879H2.7a.878.878,0,0,0-.879.879v9.783H.879a.879.879,0,1,0,0,1.757H29.121a.879.879,0,1,0,0-1.757Zm0,0" transform="translate(0 -141.206)" fill="#a0aabe"/>
  </g>
</svg>
