<svg id="picture" xmlns="http://www.w3.org/2000/svg" width="22.199" height="17.759" viewBox="0 0 22.199 17.759">
  <g id="Group_11282" data-name="Group 11282" transform="translate(0 0)">
    <path id="Path_8378" data-name="Path 8378" d="M21.655,55.365a1.776,1.776,0,0,0-1.306-.544H1.85a1.781,1.781,0,0,0-1.306.544A1.776,1.776,0,0,0,0,56.671V70.73a1.776,1.776,0,0,0,.544,1.306,1.781,1.781,0,0,0,1.306.544h18.5a1.856,1.856,0,0,0,1.85-1.85V56.671A1.776,1.776,0,0,0,21.655,55.365Zm-.937,15.366a.374.374,0,0,1-.37.37H1.85a.374.374,0,0,1-.37-.37V56.67a.375.375,0,0,1,.37-.37h18.5a.374.374,0,0,1,.37.37V70.73Z" transform="translate(0 -54.821)" fill="#48c6b6"/>
    <path id="Path_8379" data-name="Path 8379" d="M75.32,132.348a2.21,2.21,0,1,0-1.573-.647,2.141,2.141,0,0,0,1.573.647Z" transform="translate(-70.135 -124.948)" fill="#48c6b6"/>
    <path id="Path_8380" data-name="Path 8380" d="M78.642,179.506l-1.85-1.85-3.7,3.7v2.22H89.371V178.4l-4.809-4.809Z" transform="translate(-70.132 -168.777)" fill="#48c6b6"/>
  </g>
</svg>
