<svg id="Group_22239" data-name="Group 22239" xmlns="http://www.w3.org/2000/svg" width="33.298" height="33.298" viewBox="0 0 33.298 33.298">
  <g id="Group_15458" data-name="Group 15458" transform="translate(0 0)">
    <g id="surf_-_automation" data-name="surf - automation">
      <g id="Group_5235" data-name="Group 5235">
        <g id="Group_5155" data-name="Group 5155">
          <rect id="Rectangle_19924" data-name="Rectangle 19924" width="33.298" height="33.298" rx="15" fill="#6994f1"/>
        </g>
      </g>
    </g>
  </g>
  <g id="deep" transform="translate(3.329 3.327)">
    <path id="Path_36500" data-name="Path 36500" d="M25.007,14.832a2.759,2.759,0,0,0-3.457,1.21l-1.234-.5a7.16,7.16,0,0,0-.01-4.869l1.231-.513a2.758,2.758,0,1,0-.245-.59l-1.232.513a7.206,7.206,0,0,0-3.45-3.441L17.118,5.4a2.756,2.756,0,1,0-.592-.244l-.508,1.234a7.161,7.161,0,0,0-4.869.01l-.513-1.231a2.765,2.765,0,1,0-.59.246l.513,1.232A7.2,7.2,0,0,0,7.123,10.1L5.889,9.594a2.751,2.751,0,1,0-.243.592l1.233.507a7.161,7.161,0,0,0,.01,4.869l-1.231.513a2.756,2.756,0,1,0,.246.59l1.232-.513a7.2,7.2,0,0,0,3.45,3.441l-.508,1.234a2.756,2.756,0,1,0,.592.244l.507-1.233a7.16,7.16,0,0,0,4.869-.01l.513,1.231a2.755,2.755,0,1,0,.59-.246l-.513-1.232a7.2,7.2,0,0,0,3.441-3.45l1.234.508a2.756,2.756,0,1,0,3.7-1.8Zm-7.03-.444a1.274,1.274,0,0,1-1.231-.952H14.37l1.682,1.682a1.272,1.272,0,1,1-.453.453l-1.682-1.685v2.376a1.272,1.272,0,1,1-.639,0V13.886L11.6,15.567a1.272,1.272,0,1,1-.453-.453l1.674-1.684H10.448a1.272,1.272,0,1,1,0-.639h2.373L11.14,11.11a1.272,1.272,0,1,1,.461-.454l1.682,1.682V9.965a1.272,1.272,0,1,1,.639,0v2.376L15.6,10.656a1.273,1.273,0,1,1,.453.453L14.368,12.79h2.376a1.272,1.272,0,1,1,1.231,1.592Zm0,0" transform="translate(-0.488 0.004)" fill="#fff"/>
    <g id="Group_16718" data-name="Group 16718" transform="translate(8.05 8.047)">
      <path id="Path_36501" data-name="Path 36501" d="M234.492,316.914a.632.632,0,1,0,.632-.632.632.632,0,0,0-.632.632Zm0,0" transform="translate(-230.112 -307.521)" fill="#fff"/>
      <path id="Path_36502" data-name="Path 36502" d="M177.052,292.227a.632.632,0,1,0,.444.185.632.632,0,0,0-.444-.185Zm0,0" transform="translate(-175.137 -284.749)" fill="#fff"/>
      <path id="Path_36503" data-name="Path 36503" d="M152.98,234.137a.632.632,0,1,0,.632.632.632.632,0,0,0-.632-.632Zm0,0" transform="translate(-152.348 -229.757)" fill="#fff"/>
      <path id="Path_36504" data-name="Path 36504" d="M293.654,177.131a.627.627,0,1,0-.444.186.627.627,0,0,0,.444-.186Zm0,0" transform="translate(-285.098 -174.769)" fill="#fff"/>
      <path id="Path_36505" data-name="Path 36505" d="M177.04,176.055a.632.632,0,1,0,.444.185.632.632,0,0,0-.444-.185Zm0,0" transform="translate(-175.125 -174.772)" fill="#fff"/>
      <path id="Path_36506" data-name="Path 36506" d="M235.756,152.625a.632.632,0,1,0-.185.447A.632.632,0,0,0,235.756,152.625Zm0,0" transform="translate(-230.112 -151.993)" fill="#fff"/>
      <path id="Path_36507" data-name="Path 36507" d="M293.209,293.484a.633.633,0,1,0-.444-.185.633.633,0,0,0,.444.185Zm0,0" transform="translate(-285.1 -284.743)" fill="#fff"/>
      <path id="Path_36508" data-name="Path 36508" d="M317.269,234.137a.632.632,0,1,0,.632.632.632.632,0,0,0-.632-.632Zm0,0" transform="translate(-307.876 -229.757)" fill="#fff"/>
    </g>
  </g>
</svg>
