<svg id="Group_16233" data-name="Group 16233" xmlns="http://www.w3.org/2000/svg" width="17.759" height="19.977" viewBox="0 0 17.759 19.977">
  <g id="Group_11819" data-name="Group 11819" transform="translate(0 0)">
    <rect id="Rectangle_116" data-name="Rectangle 116" width="2.22" height="17.759" rx="1" transform="translate(17.759 2.553) rotate(90)" fill="#6994f1"/>
    <g id="Group_11287" data-name="Group 11287" transform="translate(9.606 0)">
      <circle id="Ellipse_1095" data-name="Ellipse 1095" cx="2.061" cy="2.061" r="2.061" transform="translate(1.386 1.652)" fill="#fff"/>
      <g id="settings-gear-64">
        <path id="Path_108" data-name="Path 108" d="M5.994,2.345l.5-.947L5.863.767l-.947.5a1.616,1.616,0,0,0-.5-.181L4.059,0h-.9L2.8,1.038a1.887,1.887,0,0,0-.451.181L1.4.721.721,1.4l.5.947a1.887,1.887,0,0,0-.181.451L0,3.157v.9l1.038.361c.046.181.135.315.181.5l-.5.947.632.632.947-.5a1.616,1.616,0,0,0,.5.181l.361,1.038h.9L4.42,6.174c.181-.046.315-.135.5-.181l.947.5.632-.632-.5-.942a1.616,1.616,0,0,0,.181-.5l1.04-.361v-.9L6.177,2.8a1.887,1.887,0,0,0-.183-.451ZM3.607,4.96A1.332,1.332,0,0,1,2.255,3.607,1.332,1.332,0,0,1,3.607,2.255,1.332,1.332,0,0,1,4.96,3.607,1.332,1.332,0,0,1,3.607,4.96Z" fill="#6994f1"/>
      </g>
    </g>
  </g>
  <g id="Group_11820" data-name="Group 11820" transform="translate(0 6.661)">
    <path id="Path_36679" data-name="Path 36679" d="M1.11,0A1.11,1.11,0,0,1,2.22,1.11V16.649a1.11,1.11,0,0,1-2.22,0V1.11A1.11,1.11,0,0,1,1.11,0Z" transform="translate(17.759 2.552) rotate(90)" fill="#6994f1"/>
    <g id="Group_11292" data-name="Group 11292" transform="translate(0.728 0)">
      <circle id="Ellipse_1095-2" data-name="Ellipse 1095" cx="2.061" cy="2.061" r="2.061" transform="translate(1.386 1.652)" fill="#fff"/>
      <g id="settings-gear-64-2" data-name="settings-gear-64" transform="translate(0 0)">
        <path id="Path_108-2" data-name="Path 108" d="M5.994,2.345l.5-.947L5.863.767l-.947.5a1.616,1.616,0,0,0-.5-.181L4.059,0h-.9L2.8,1.038a1.887,1.887,0,0,0-.451.181L1.4.721.721,1.4l.5.947a1.887,1.887,0,0,0-.181.451L0,3.157v.9l1.038.361c.046.181.135.315.181.5l-.5.947.632.632.947-.5a1.616,1.616,0,0,0,.5.181l.361,1.038h.9L4.42,6.174c.181-.046.315-.135.5-.181l.947.5.632-.632-.5-.942a1.616,1.616,0,0,0,.181-.5l1.04-.361v-.9L6.177,2.8a1.887,1.887,0,0,0-.183-.451ZM3.607,4.96A1.332,1.332,0,0,1,2.255,3.607,1.332,1.332,0,0,1,3.607,2.255,1.332,1.332,0,0,1,4.96,3.607,1.332,1.332,0,0,1,3.607,4.96Z" fill="#6994f1"/>
      </g>
    </g>
  </g>
  <g id="Group_11821" data-name="Group 11821" transform="translate(0 12.764)">
    <rect id="Rectangle_117" data-name="Rectangle 117" width="2.22" height="17.759" rx="1" transform="translate(17.759 2.553) rotate(90)" fill="#6994f1"/>
    <g id="Group_11293" data-name="Group 11293" transform="translate(9.607 0)">
      <circle id="Ellipse_1095-3" data-name="Ellipse 1095" cx="2.061" cy="2.061" r="2.061" transform="translate(1.386 1.652)" fill="#fff"/>
      <g id="settings-gear-64-3" data-name="settings-gear-64">
        <path id="Path_108-3" data-name="Path 108" d="M5.994,2.345l.5-.947L5.863.767l-.947.5a1.616,1.616,0,0,0-.5-.181L4.059,0h-.9L2.8,1.038a1.887,1.887,0,0,0-.451.181L1.4.721.721,1.4l.5.947a1.887,1.887,0,0,0-.181.451L0,3.157v.9l1.038.361c.046.181.135.315.181.5l-.5.947.632.632.947-.5a1.616,1.616,0,0,0,.5.181l.361,1.038h.9L4.42,6.174c.181-.046.315-.135.5-.181l.947.5.632-.632-.5-.942a1.616,1.616,0,0,0,.181-.5l1.04-.361v-.9L6.177,2.8a1.887,1.887,0,0,0-.183-.451ZM3.607,4.96A1.332,1.332,0,0,1,2.255,3.607,1.332,1.332,0,0,1,3.607,2.255,1.332,1.332,0,0,1,4.96,3.607,1.332,1.332,0,0,1,3.607,4.96Z" fill="#6994f1"/>
      </g>
    </g>
  </g>
</svg>
