<svg xmlns="http://www.w3.org/2000/svg" xmlns:xlink="http://www.w3.org/1999/xlink" width="648" height="168" viewBox="0 0 648 168">
  <defs>
    <filter id="Rectangle_26246" x="0" y="0" width="648" height="168" filterUnits="userSpaceOnUse">
      <feOffset dy="3" input="SourceAlpha"/>
      <feGaussianBlur stdDeviation="3" result="blur"/>
      <feFlood flood-opacity="0.161"/>
      <feComposite operator="in" in2="blur"/>
      <feComposite in="SourceGraphic"/>
    </filter>
    <filter id="Path_50177" x="523.863" y="52.383" width="42.173" height="42.173" filterUnits="userSpaceOnUse">
      <feOffset dy="3" input="SourceAlpha"/>
      <feGaussianBlur stdDeviation="3" result="blur-2"/>
      <feFlood flood-opacity="0.161"/>
      <feComposite operator="in" in2="blur-2"/>
      <feComposite in="SourceGraphic"/>
    </filter>
    <filter id="Path_38010" x="291" y="45.898" width="35.688" height="35.688" filterUnits="userSpaceOnUse">
      <feOffset dy="3" input="SourceAlpha"/>
      <feGaussianBlur stdDeviation="3" result="blur-3"/>
      <feFlood flood-opacity="0.161"/>
      <feComposite operator="in" in2="blur-3"/>
      <feComposite in="SourceGraphic"/>
    </filter>
  </defs>
  <g id="Group_20076" data-name="Group 20076" transform="translate(4120 -3416)">
    <g transform="matrix(1, 0, 0, 1, -4120, 3416)" filter="url(#Rectangle_26246)">
      <rect id="Rectangle_26246-2" data-name="Rectangle 26246" width="630" height="150" rx="10" transform="translate(9 6)" fill="#fff"/>
    </g>
    <g id="Group_19842" data-name="Group 19842" transform="translate(18793 -12812)">
      <path id="Rectangle_23721" data-name="Rectangle 23721" d="M10,0H210a0,0,0,0,1,0,0V150a0,0,0,0,1,0,0H10A10,10,0,0,1,0,140V10A10,10,0,0,1,10,0Z" transform="translate(-22904 16234)" fill="#f3f7ff"/>
      <text id="Automation_Tactics" data-name="Automation 
Tactics" transform="translate(-22834 16304)" fill="#43425d" font-size="20" font-family="Helvetica"><tspan x="0" y="0">Automation </tspan><tspan x="0" y="24">Tactics</tspan></text>
      <g id="Group_19613" data-name="Group 19613" transform="translate(-22283 16270.778) rotate(90)">
        <rect id="Rectangle_116" data-name="Rectangle 116" width="3.125" height="25" rx="1" transform="translate(28.844 571)" fill="#35344b"/>
        <rect id="Rectangle_117" data-name="Rectangle 117" width="3.125" height="25" rx="1" transform="translate(45.594 571)" fill="#35344b"/>
        <rect id="Rectangle_119" data-name="Rectangle 119" width="3.125" height="25" rx="1" transform="translate(37.219 571)" fill="#35344b"/>
        <circle id="Ellipse_953" data-name="Ellipse 953" cx="4" cy="4" r="4" transform="translate(26.222 574)" fill="#35344b"/>
        <circle id="Ellipse_954" data-name="Ellipse 954" cx="4" cy="4" r="4" transform="translate(35.222 580)" fill="#35344b"/>
        <circle id="Ellipse_955" data-name="Ellipse 955" cx="4" cy="4" r="4" transform="translate(43.222 586)" fill="#35344b"/>
      </g>
    </g>
    <g id="Group_19843" data-name="Group 19843" transform="translate(-4517 2755)">
      <path id="Rectangle_23721-2" data-name="Rectangle 23721" d="M0,0H410a10,10,0,0,1,10,10V140a10,10,0,0,1-10,10H0a0,0,0,0,1,0,0V0A0,0,0,0,1,0,0Z" transform="translate(616 667)" fill="#fff"/>
      <g id="Group_19885" data-name="Group 19885" transform="translate(697 688)">
        <ellipse id="Ellipse_973" data-name="Ellipse 973" cx="6.484" cy="6.484" rx="6.484" ry="6.484" transform="translate(33.566 68.191)" fill="#ffa8b9"/>
        <ellipse id="Ellipse_974" data-name="Ellipse 974" cx="3.242" cy="3.242" rx="3.242" ry="3.242" transform="translate(77.741 36.174)" fill="#ffa8b9"/>
        <ellipse id="Ellipse_975" data-name="Ellipse 975" cx="7.903" cy="7.903" rx="7.903" ry="7.903" transform="translate(114.621 61.301)" fill="#c0dadd"/>
        <ellipse id="Ellipse_976" data-name="Ellipse 976" cx="5.877" cy="5.877" rx="5.877" ry="5.877" transform="translate(177.844 56.438)" fill="#f5e0e8"/>
        <ellipse id="Ellipse_977" data-name="Ellipse 977" cx="8.916" cy="8.916" rx="8.916" ry="8.916" transform="translate(236.033 34.553)" fill="#8abfc5"/>
        <ellipse id="Ellipse_978" data-name="Ellipse 978" cx="5.066" cy="5.066" rx="5.066" ry="5.066" transform="translate(210.672 84.807)" fill="#dce8ea"/>
        <ellipse id="Ellipse_979" data-name="Ellipse 979" cx="5.674" cy="5.674" rx="5.674" ry="5.674" transform="translate(133.669 28.068)" fill="#ffa8b9"/>
        <ellipse id="Ellipse_980" data-name="Ellipse 980" cx="5.674" cy="5.674" rx="5.674" ry="5.674" transform="translate(3.17 28.068)" fill="#8abfc5"/>
        <path id="Path_4079" data-name="Path 4079" d="M-6396.525,7242.653h0c-.113.015,40.415-6.862,26.983,35.346" transform="translate(6412.155 -7209.462)" fill="none" stroke="#a0aabe" stroke-width="1" stroke-dasharray="4"/>
        <path id="Path_4080" data-name="Path 4080" d="M-6342.771,7271c.253-.454.909-2.019.909-2.019l2.069.354" transform="translate(6384.941 -7225.522)" fill="#a0aabe" stroke="#a0aabe" stroke-width="0.1"/>
        <path id="Path_4081" data-name="Path 4081" d="M-6322.423,7326.755s49.946-15.2,69.13-1.12" transform="translate(6367.571 -7255.811)" fill="none" stroke="#a0aabe" stroke-width="1" stroke-dasharray="4"/>
        <path id="Path_4082" data-name="Path 4082" d="M-6189.9,7281.641c-.223-.554,2.217-23.842-33.268-22.621" transform="translate(6308.542 -7219.568)" fill="none" stroke="#a0aabe" stroke-width="1" stroke-dasharray="4"/>
        <path id="Path_4083" data-name="Path 4083" d="M-5922.922,7264.777c-14.849-2.816-40.7,3.919-47.773,18.573" transform="translate(6158.39 -7225.576)" fill="none" stroke="#a0aabe" stroke-width="1" stroke-dasharray="4"/>
        <path id="Path_4084" data-name="Path 4084" d="M-6400.288,7232.021a143.683,143.683,0,0,1,33.607-3.1c11.716.5,23.729,4.6,31.133,10.409h0" transform="translate(6413.878 -7201.639)" fill="none" stroke="#a0aabe" stroke-width="1" stroke-dasharray="4"/>
        <path id="Path_4085" data-name="Path 4085" d="M-6227.89,7242.073s13.813-5.38,35.937-7.369c23.691-2.129,56.122-.62,88,7.369" transform="translate(6239.875 -7212.678)" fill="none" stroke="#a0aabe" stroke-width="1" stroke-dasharray="4"/>
        <path id="Path_4086" data-name="Path 4086" d="M-6107.325,7259s6.373,9.739-11.805,23.419" transform="translate(6246.668 -7219.583)" fill="none" stroke="#a0aabe" stroke-width="1" stroke-dasharray="4"/>
        <path id="Path_4087" data-name="Path 4087" d="M-6112,7316.267c1.984-.484,24.472-15.289,47.148-6.668" transform="translate(6242.428 -7248.076)" fill="none" stroke="#a0aabe" stroke-width="1" stroke-dasharray="4"/>
        <path id="Path_4088" data-name="Path 4088" d="M-5892.667,7320.892s38.537-9.037,27.043-34.781" transform="translate(6112.804 -7233.933)" fill="none" stroke="#a0aabe" stroke-width="1" stroke-dasharray="4"/>
        <path id="Path_4089" data-name="Path 4089" d="M-6076,7247c.886-.2,59.731,9.542,67.415,51.333" transform="translate(6221.018 -7212.443)" fill="none" stroke="#a0aabe" stroke-width="1" stroke-dasharray="4"/>
        <path id="Path_4090" data-name="Path 4090" d="M-5973.008,7328.171s1.874,14.688,23.987,23.121" transform="translate(6159.765 -7260.722)" fill="none" stroke="#a0aabe" stroke-width="1" stroke-dasharray="4"/>
        <path id="Path_4093" data-name="Path 4093" d="M0,2.019C.252,1.565.908,0,.908,0l2.07.353" transform="translate(46.498 28.235) rotate(-60)" fill="#a0aabe" stroke="#a0aabe" stroke-width="0.1"/>
        <path id="Path_4094" data-name="Path 4094" d="M0,2.019C.252,1.565.908,0,.908,0l2.07.353" transform="translate(75.268 64.357) rotate(120)" fill="#a0aabe" stroke="#a0aabe" stroke-width="0.1"/>
        <path id="Path_4095" data-name="Path 4095" d="M0,2.019C.252,1.565.908,0,.908,0l2.07.353" transform="translate(111.108 44.603) rotate(150)" fill="#a0aabe" stroke="#a0aabe" stroke-width="0.1"/>
        <path id="Path_4096" data-name="Path 4096" d="M0,2.019C.252,1.565.908,0,.908,0l2.07.353" transform="translate(78.109 22.156) rotate(-60)" fill="#a0aabe" stroke="#a0aabe" stroke-width="0.1"/>
        <path id="Path_4097" data-name="Path 4097" d="M0,2.019C.252,1.565.908,0,.908,0l2.07.353" transform="matrix(-0.259, -0.966, 0.966, -0.259, 136.282, 55.088)" fill="#a0aabe" stroke="#a0aabe" stroke-width="0.1"/>
        <path id="Path_4098" data-name="Path 4098" d="M0,2.019C.252,1.565.908,0,.908,0l2.07.353" transform="translate(14.314 34.278) rotate(-74)" fill="#a0aabe" stroke="#a0aabe" stroke-width="0.1"/>
        <path id="Path_4099" data-name="Path 4099" d="M0,2.019C.252,1.565.908,0,.908,0l2.07.353" transform="translate(115.143 69.322) rotate(137)" fill="#a0aabe" stroke="#a0aabe" stroke-width="0.1"/>
        <path id="Path_4100" data-name="Path 4100" d="M0,2.019C.252,1.565.908,0,.908,0l2.07.353" transform="translate(119.644 62.2) rotate(-176)" fill="#a0aabe" stroke="#a0aabe" stroke-width="0.1"/>
        <path id="Path_4101" data-name="Path 4101" d="M0,2.019C.252,1.565.908,0,.908,0l2.07.353" transform="matrix(-0.259, -0.966, 0.966, -0.259, 127.771, 64.004)" fill="#a0aabe" stroke="#a0aabe" stroke-width="0.1"/>
        <path id="Path_4102" data-name="Path 4102" d="M0,2.019C.252,1.565.908,0,.908,0l2.07.353" transform="translate(130.127 69.007) rotate(-69)" fill="#a0aabe" stroke="#a0aabe" stroke-width="0.1"/>
        <path id="Path_4104" data-name="Path 4104" d="M0,2.019C.252,1.565.908,0,.908,0l2.07.353" transform="translate(237.375 38.989) rotate(139)" fill="#a0aabe" stroke="#a0aabe" stroke-width="0.1"/>
        <path id="Path_4105" data-name="Path 4105" d="M0,2.019C.252,1.565.908,0,.908,0l2.07.353" transform="matrix(0.966, 0.259, -0.259, 0.966, 246.237, 51.27)" fill="#a0aabe" stroke="#a0aabe" stroke-width="0.1"/>
        <path id="Path_4106" data-name="Path 4106" d="M0,2.019C.252,1.565.908,0,.908,0l2.07.353" transform="translate(241.044 76.353) rotate(90)" fill="#a0aabe" stroke="#a0aabe" stroke-width="0.1"/>
        <path id="Path_4107" data-name="Path 4107" d="M0,2.019C.252,1.565.908,0,.908,0l2.07.353" transform="matrix(-0.999, 0.052, -0.052, -0.999, 213.793, 85.525)" fill="#a0aabe" stroke="#a0aabe" stroke-width="0.1"/>
        <path id="Path_4108" data-name="Path 4108" d="M0,2.019C.252,1.565.908,0,.908,0l2.07.353" transform="translate(211.183 89.93) rotate(135)" fill="#a0aabe" stroke="#a0aabe" stroke-width="0.1"/>
        <path id="Path_4109" data-name="Path 4109" d="M0,2.019C.252,1.565.908,0,.908,0l2.07.353" transform="matrix(-0.966, 0.259, -0.259, -0.966, 196.121, 81.133)" fill="#a0aabe" stroke="#a0aabe" stroke-width="0.1"/>
        <path id="Path_4110" data-name="Path 4110" d="M0,2.019C.252,1.565.908,0,.908,0l2.07.353" transform="translate(185.678 48.656) rotate(150)" fill="#a0aabe" stroke="#a0aabe" stroke-width="0.1"/>
        <path id="Path_4111" data-name="Path 4111" d="M0,2.6C.325,2.012,1.168,0,1.168,0L3.828.454" transform="matrix(0.259, -0.966, 0.966, 0.259, 153.726, 60.377)" fill="#a0aabe" stroke="#a0aabe" stroke-width="0.1"/>
        <path id="Path_4112" data-name="Path 4112" d="M0,2.019C.252,1.565.908,0,.908,0l2.07.353" transform="translate(12.727 30.056) rotate(-120)" fill="#a0aabe" stroke="#a0aabe" stroke-width="0.1"/>
        <path id="Path_4113" data-name="Path 4113" d="M0,2.019C.252,1.565.908,0,.908,0l2.07.353" transform="translate(13.469 31.371) rotate(-90)" fill="#a0aabe" stroke="#a0aabe" stroke-width="0.1"/>
        <ellipse id="Ellipse_981" data-name="Ellipse 981" cx="3.04" cy="3.04" rx="3.04" ry="3.04" transform="translate(95.168 10.236)" fill="rgba(255,168,185,0.75)"/>
        <ellipse id="Ellipse_983" data-name="Ellipse 983" cx="3.85" cy="3.85" rx="3.85" ry="3.85" transform="translate(101.652 27.663)" fill="#8abfc5"/>
        <ellipse id="Ellipse_984" data-name="Ellipse 984" cx="3.85" cy="3.85" rx="3.85" ry="3.85" transform="translate(179.06 23.61)" fill="#8abfc5"/>
        <ellipse id="Ellipse_985" data-name="Ellipse 985" cx="3.85" cy="3.85" rx="3.85" ry="3.85" transform="translate(54.235 43.469)" fill="#c0dadd"/>
        <ellipse id="Ellipse_986" data-name="Ellipse 986" cx="3.85" cy="3.85" rx="3.85" ry="3.85" transform="translate(155.149 81.16)" fill="#ffa8b9"/>
        <path id="Path_4119" data-name="Path 4119" d="M-6115.847,7316.47c2.643-5.375,20.472-14.718,37.236-4.233" transform="translate(6258.494 -7287.32)" fill="none" stroke="#a0aabe" stroke-width="1" stroke-dasharray="4"/>
        <path id="Path_4120" data-name="Path 4120" d="M0,2.019C.252,1.565.908,0,.908,0l2.07.353" transform="translate(180.814 24.339) rotate(150)" fill="#a0aabe" stroke="#a0aabe" stroke-width="0.1"/>
        <path id="Path_4121" data-name="Path 4121" d="M0,2.019C.252,1.565.908,0,.908,0l2.07.353" transform="translate(164.023 19.372) rotate(120)" fill="#a0aabe" stroke="#a0aabe" stroke-width="0.1"/>
        <path id="Path_4122" data-name="Path 4122" d="M0,8.757c6.273-5.5,15.168-16.171,29.22-.809" transform="translate(171.211 57.684) rotate(-90)" fill="none" stroke="#a0aabe" stroke-width="1" stroke-dasharray="4"/>
        <path id="Path_4123" data-name="Path 4123" d="M0,2.019C.252,1.565.908,0,.908,0l2.07.353" transform="translate(179.22 27.989) rotate(90)" fill="#a0aabe" stroke="#a0aabe" stroke-width="0.1"/>
        <path id="Path_4124" data-name="Path 4124" d="M0,2.019C.252,1.565.908,0,.908,0l2.07.353" transform="translate(170.982 39.464) rotate(45)" fill="#a0aabe" stroke="#a0aabe" stroke-width="0.1"/>
        <path id="Path_4125" data-name="Path 4125" d="M-6116.02,7324.314c1.212-.541,9.563,6.908,26.952,9.86" transform="translate(6244.381 -7249.698)" fill="none" stroke="#a0aabe" stroke-width="1" stroke-dasharray="4"/>
        <path id="Path_4126" data-name="Path 4126" d="M0,2.019C.252,1.565.908,0,.908,0l2.07.353" transform="translate(127.378 74.738) rotate(-30)" fill="#a0aabe" stroke="#a0aabe" stroke-width="0.1"/>
        <path id="Path_4127" data-name="Path 4127" d="M-6115.991,7309.486c1.84-1.857,14.307-4.311,25.975-.686" transform="translate(6225.285 -7279.087)" fill="none" stroke="#a0aabe" stroke-width="1" stroke-dasharray="4"/>
        <path id="Path_4128" data-name="Path 4128" d="M0,2.019C.252,1.565.908,0,.908,0l2.07.353" transform="translate(109.114 31.371) rotate(-90)" fill="#a0aabe" stroke="#a0aabe" stroke-width="0.1"/>
        <path id="Path_4129" data-name="Path 4129" d="M0,1.334C.962.363,7.48-.92,13.58.975" transform="matrix(0.259, 0.966, -0.966, 0.259, 102.139, 14.419)" fill="none" stroke="#a0aabe" stroke-width="1" stroke-dasharray="4"/>
        <path id="Path_4130" data-name="Path 4130" d="M0,2.019C.252,1.565.908,0,.908,0l2.07.353" transform="translate(105.639 28.259) rotate(-150)" fill="#a0aabe" stroke="#a0aabe" stroke-width="0.1"/>
        <path id="Path_4131" data-name="Path 4131" d="M0,2.93C1.364.8,10.605-2.02,19.254,2.142" transform="matrix(0.966, -0.259, 0.259, 0.966, 82.65, 34.862)" fill="none" stroke="#a0aabe" stroke-width="1" stroke-dasharray="4"/>
        <path id="Path_4132" data-name="Path 4132" d="M0,2.019C.252,1.565.908,0,.908,0l2.07.353" transform="matrix(-0.259, 0.966, -0.966, -0.259, 102.163, 31.138)" fill="#a0aabe" stroke="#a0aabe" stroke-width="0.1"/>
        <path id="Path_4133" data-name="Path 4133" d="M0,3.45S21.972-.669,44.362.094c15.465.544,31.321,4.97,41.1,11.249h0" transform="translate(11.117 25.782) rotate(-17)" fill="none" stroke="#a0aabe" stroke-width="1" stroke-dasharray="4"/>
        <path id="Path_4134" data-name="Path 4134" d="M0,2.019C.252,1.565.908,0,.908,0l2.07.353" transform="matrix(0.259, -0.966, 0.966, 0.259, 54.051, 13.632)" fill="#a0aabe" stroke="#a0aabe" stroke-width="0.1"/>
        <path id="Path_4135" data-name="Path 4135" d="M0,11.525c10.541-7.819,39.478-16.478,76.575-8.1" transform="matrix(0.966, 0.259, -0.259, 0.966, 103.471, 0)" fill="none" stroke="#a0aabe" stroke-width="1" stroke-dasharray="4"/>
        <path id="Path_4136" data-name="Path 4136" d="M0,9.713c6.4,3,36.607,15.243,49.952-9.712" transform="matrix(0.259, 0.966, -0.966, 0.259, 105.508, 12.932)" fill="none" stroke="#a0aabe" stroke-width="1" stroke-dasharray="4"/>
        <path id="Path_4137" data-name="Path 4137" d="M-6342.172,7284.96h0a209.165,209.165,0,0,1-11.541,19.333" transform="translate(6398.01 -7234.459)" fill="none" stroke="#a0aabe" stroke-width="1" stroke-dasharray="4"/>
        <path id="Path_4138" data-name="Path 4138" d="M0,2.019C.252,1.565.908,0,.908,0l2.07.353" transform="matrix(0.259, 0.966, -0.966, 0.259, 56.002, 49.663)" fill="#a0aabe" stroke="#a0aabe" stroke-width="0.1"/>
        <path id="Path_4139" data-name="Path 4139" d="M0,1.75C1.315.476,10.221-1.206,18.556,1.279" transform="matrix(0.966, -0.259, 0.259, 0.966, 59.955, 42.157)" fill="none" stroke="#a0aabe" stroke-width="1" stroke-dasharray="4"/>
        <path id="Path_4140" data-name="Path 4140" d="M0,2.019C.252,1.565.908,0,.908,0l2.07.353" transform="matrix(-0.259, -0.966, 0.966, -0.259, 60.496, 44.551)" fill="#a0aabe" stroke="#a0aabe" stroke-width="0.1"/>
        <path id="Path_4141" data-name="Path 4141" d="M0,19.686C1.983,19.2,21.115,4.434,42.574,0" transform="translate(199.598 107.273) rotate(-150)" fill="none" stroke="#a0aabe" stroke-width="1" stroke-dasharray="4"/>
        <path id="Path_4142" data-name="Path 4142" d="M-6214.739,7341.507c77.168,22.1,109.092,6.724,109.092,6.724" transform="translate(6260.7 -7263.248)" fill="none" stroke="#a0aabe" stroke-width="1" stroke-dasharray="4"/>
        <ellipse id="Ellipse_987" data-name="Ellipse 987" cx="3.242" cy="3.242" rx="3.242" ry="3.242" transform="translate(78.957 83.186)" fill="#8abfc5"/>
        <path id="Path_4143" data-name="Path 4143" d="M29.434,28.5C29.213,27.942,24.5,13.282,0,0" transform="matrix(0.719, 0.695, -0.695, 0.719, 82.21, 42.487)" fill="none" stroke="#a0aabe" stroke-width="1" stroke-dasharray="4"/>
        <path id="Path_4144" data-name="Path 4144" d="M0,2.019C.252,1.565.908,0,.908,0l2.07.353" transform="translate(84.12 84.335) rotate(-135)" fill="#a0aabe" stroke="#a0aabe" stroke-width="0.1"/>
        <path id="Path_4145" data-name="Path 4145" d="M0,2.019C.252,1.565.908,0,.908,0l2.07.353" transform="translate(79.468 85.472) rotate(135)" fill="#a0aabe" stroke="#a0aabe" stroke-width="0.1"/>
        <path id="Path_4146" data-name="Path 4146" d="M0,2.019C.252,1.565.908,0,.908,0l2.07.353" transform="translate(84.445 87.771) rotate(-45)" fill="#a0aabe" stroke="#a0aabe" stroke-width="0.1"/>
        <path id="Path_4147" data-name="Path 4147" d="M-6116.116,7320.752s49.387-6.844,89.963,4.548" transform="translate(6261.491 -7286.227)" fill="none" stroke="#a0aabe" stroke-width="1" stroke-dasharray="4"/>
        <g transform="matrix(1, 0, 0, 1, -300, -27)" filter="url(#Path_50177)">
          <path id="Path_50177-2" data-name="Path 50177" d="M12.086,0A12.086,12.086,0,1,1,0,12.086,12.086,12.086,0,0,1,12.086,0Z" transform="translate(532.86 58.38)" fill="#48c6b6" opacity="0.23"/>
        </g>
        <ellipse id="Ellipse_992" data-name="Ellipse 992" cx="6.968" cy="6.968" rx="6.968" ry="6.968" transform="translate(208.769 82.905)" fill="#48c6b6" opacity="0.3"/>
        <ellipse id="Ellipse_993" data-name="Ellipse 993" cx="10.439" cy="10.439" rx="10.439" ry="10.439" transform="translate(112.085 58.765)" fill="#48c6b6" opacity="0.43"/>
        <ellipse id="Ellipse_994" data-name="Ellipse 994" cx="5.752" cy="5.752" rx="5.752" ry="5.752" transform="translate(177.158 21.708)" fill="#48c6b6" opacity="0.29"/>
        <ellipse id="Ellipse_995" data-name="Ellipse 995" cx="6.386" cy="6.386" rx="6.386" ry="6.386" transform="translate(99.116 25.127)" fill="#48c6b6" opacity="0.43"/>
        <ellipse id="Ellipse_996" data-name="Ellipse 996" cx="5.752" cy="5.752" rx="5.752" ry="5.752" transform="translate(52.333 41.567)" fill="#48c6b6" opacity="0.42"/>
        <g transform="matrix(1, 0, 0, 1, -300, -27)" filter="url(#Path_38010)">
          <path id="Path_38010-2" data-name="Path 38010" d="M8.844,0A8.844,8.844,0,1,1,0,8.844,8.844,8.844,0,0,1,8.844,0Z" transform="translate(300 51.9)" fill="#48c6b6" opacity="0.35"/>
        </g>
        <ellipse id="Ellipse_998" data-name="Ellipse 998" cx="5.144" cy="5.144" rx="5.144" ry="5.144" transform="translate(77.055 81.284)" fill="#48c6b6" opacity="0.45"/>
        <g id="Group_20071" data-name="Group 20071" transform="translate(38 28.066)">
          <text id="_" data-name="$" transform="translate(81 45.621)" fill="#8abfc5" font-size="13" font-family="Helvetica"><tspan x="0" y="0">$</tspan></text>
          <text id="_2" data-name="$" transform="translate(98.912 9)" fill="#dc8697" font-size="9" font-family="Helvetica"><tspan x="0" y="0">$</tspan></text>
          <text id="_3" data-name="$" transform="translate(202.896 19.706)" fill="#7dadb2" font-size="14" font-family="Helvetica"><tspan x="0" y="0">$</tspan></text>
          <text id="_4" data-name="$" transform="translate(0 49.579)" fill="#dc8697" font-size="9" font-family="Helvetica"><tspan x="0" y="0">$</tspan></text>
        </g>
      </g>
    </g>
    <text id="_5" data-name="$" transform="translate(-3821 3483)" fill="#dce8ea" font-size="9" font-family="Helvetica"><tspan x="0" y="0">$</tspan></text>
  </g>
</svg>
