<svg xmlns="http://www.w3.org/2000/svg" xmlns:xlink="http://www.w3.org/1999/xlink" width="648" height="168" viewBox="0 0 648 168">
  <defs>
    <filter id="Rectangle_26253" x="0" y="0" width="648" height="168" filterUnits="userSpaceOnUse">
      <feOffset dy="3" input="SourceAlpha"/>
      <feGaussianBlur stdDeviation="3" result="blur"/>
      <feFlood flood-opacity="0.161"/>
      <feComposite operator="in" in2="blur"/>
      <feComposite in="SourceGraphic"/>
    </filter>
    <linearGradient id="linear-gradient" x1="0.5" x2="0.5" y2="1" gradientUnits="objectBoundingBox">
      <stop offset="0" stop-color="#02c2b9"/>
      <stop offset="1" stop-color="gray" stop-opacity="0"/>
    </linearGradient>
    <linearGradient id="linear-gradient-2" x1="0.5" x2="0.5" y2="1" gradientUnits="objectBoundingBox">
      <stop offset="0" stop-color="#a0aabe"/>
      <stop offset="1" stop-color="#f6f6f8"/>
    </linearGradient>
    <linearGradient id="linear-gradient-3" x1="0.5" x2="0.5" y2="1" gradientUnits="objectBoundingBox">
      <stop offset="0" stop-color="#53c1f3"/>
      <stop offset="1" stop-color="gray" stop-opacity="0"/>
    </linearGradient>
    <linearGradient id="linear-gradient-4" x1="0.5" x2="0.5" y2="1" gradientUnits="objectBoundingBox">
      <stop offset="0" stop-color="#a0aabe"/>
      <stop offset="1" stop-color="gray" stop-opacity="0"/>
    </linearGradient>
    <linearGradient id="linear-gradient-6" x1="0.5" x2="0.5" y2="1" gradientUnits="objectBoundingBox">
      <stop offset="0" stop-color="#5586ef"/>
      <stop offset="1" stop-color="gray" stop-opacity="0"/>
    </linearGradient>
  </defs>
  <g id="Group_20073" data-name="Group 20073" transform="translate(4120 -2649)">
    <g transform="matrix(1, 0, 0, 1, -4120, 2649)" filter="url(#Rectangle_26253)">
      <rect id="Rectangle_26253-2" data-name="Rectangle 26253" width="630" height="150" rx="10" transform="translate(9 6)" fill="#fff"/>
    </g>
    <g id="Group_19863" data-name="Group 19863" transform="translate(19305 -12813)">
      <path id="Rectangle_23721" data-name="Rectangle 23721" d="M10,0H210a0,0,0,0,1,0,0V150a0,0,0,0,1,0,0H10A10,10,0,0,1,0,140V10A10,10,0,0,1,10,0Z" transform="translate(-23416 15468)" fill="#f3f7ff"/>
      <text id="Strategic_Dashboard" data-name="Strategic
Dashboard" transform="translate(-23346 15538)" fill="#43425d" font-size="20" font-family="Helvetica"><tspan x="0" y="0">Strategic</tspan><tspan x="0" y="24">Dashboard</tspan></text>
      <g id="chart-bar-32" transform="translate(-23391 15531.001)">
        <path id="Union_8" data-name="Union 8" d="M20.313,25a1.477,1.477,0,0,1-1.564-1.562V9.375a1.477,1.477,0,0,1,1.564-1.562h3.125A1.476,1.476,0,0,1,25,9.375V23.438A1.476,1.476,0,0,1,23.438,25Zm-9.375,0a1.475,1.475,0,0,1-1.562-1.562V1.562A1.476,1.476,0,0,1,10.938,0h3.125a1.476,1.476,0,0,1,1.562,1.562V23.438A1.475,1.475,0,0,1,14.062,25ZM1.562,25A1.476,1.476,0,0,1,0,23.438V17.188a1.477,1.477,0,0,1,1.562-1.564H4.687a1.478,1.478,0,0,1,1.564,1.564v6.249A1.477,1.477,0,0,1,4.687,25Z" transform="translate(0 -0.001)" fill="#35344b"/>
      </g>
    </g>
    <g id="Group_20028" data-name="Group 20028">
      <g id="Group_19952" data-name="Group 19952" transform="translate(-5091 1819)">
        <g id="Group_19460" data-name="Group 19460" transform="translate(574 169)">
          <path id="Rectangle_23721-2" data-name="Rectangle 23721" d="M0,0H410a10,10,0,0,1,10,10V140a10,10,0,0,1-10,10H0a0,0,0,0,1,0,0V0A0,0,0,0,1,0,0Z" transform="translate(616 667)" fill="#fff"/>
        </g>
      </g>
      <g id="acqusition_graph" data-name="acqusition graph" transform="translate(-3886 2691.416)">
        <path id="Path_1731" data-name="Path 1731" d="M0,24.441l24.225-7.213H63.846L89.01,5.581l23.3-.083V63.614H0Z" transform="translate(0 12.762)" opacity="0.3" fill="url(#linear-gradient)"/>
        <g id="Group_19888" data-name="Group 19888" transform="translate(0.471)">
          <g id="Group_1472" data-name="Group 1472" transform="translate(0 9.805)">
            <g id="Group_1433" data-name="Group 1433" transform="translate(0 66.786)">
              <path id="Path_140" data-name="Path 140" d="M-74.267,0H-185.845" transform="translate(185.845)" fill="none" stroke="#e6e6e6" stroke-width="0.1"/>
            </g>
            <g id="Group_1434" data-name="Group 1434" transform="translate(0 49.903)">
              <path id="Path_141" data-name="Path 141" d="M-74.267,0H-185.845" transform="translate(185.845)" fill="none" stroke="#e6e6e6" stroke-width="0.1"/>
            </g>
            <g id="Group_1435" data-name="Group 1435" transform="translate(0 33.369)">
              <path id="Path_142" data-name="Path 142" d="M-74.267,0H-185.845" transform="translate(185.845)" fill="none" stroke="#e6e6e6" stroke-width="0.1"/>
            </g>
            <g id="Group_1436" data-name="Group 1436" transform="translate(0 16.684)">
              <path id="Path_143" data-name="Path 143" d="M-74.267,0H-185.845" transform="translate(185.845)" fill="none" stroke="#e6e6e6" stroke-width="0.1"/>
            </g>
            <g id="Group_1437" data-name="Group 1437" transform="translate(0.233)">
              <path id="Path_144" data-name="Path 144" d="M-74.108,0H-185.453" transform="translate(185.453)" fill="none" stroke="#e6e6e6" stroke-width="0.1"/>
            </g>
          </g>
          <g id="Group_1438" data-name="Group 1438" transform="translate(9.555)">
            <path id="Path_145" data-name="Path 145" d="M0-50.991v-76.591" transform="translate(0 127.582)" fill="none" stroke="#e6e6e6" stroke-width="0.1"/>
          </g>
          <g id="Group_1439" data-name="Group 1439" transform="translate(40.411)">
            <path id="Path_146" data-name="Path 146" d="M0-50.991v-76.591" transform="translate(0 127.582)" fill="none" stroke="#e6e6e6" stroke-width="0.1"/>
          </g>
          <g id="Group_1440" data-name="Group 1440" transform="translate(71.167)">
            <path id="Path_147" data-name="Path 147" d="M0-50.991v-76.591" transform="translate(0 127.582)" fill="none" stroke="#e6e6e6" stroke-width="0.1"/>
          </g>
          <g id="Group_1441" data-name="Group 1441" transform="translate(102.022)">
            <path id="Path_148" data-name="Path 148" d="M0-50.991v-76.591" transform="translate(0 127.582)" fill="none" stroke="#e6e6e6" stroke-width="0.1"/>
          </g>
        </g>
        <path id="Path_1732" data-name="Path 1732" d="M-.429,3.057,39.505-4.793H71.318l40.519-16.819-.223,48.486L-.3,26.784Z" transform="translate(0.433 49.503)" opacity="0.3" fill="url(#linear-gradient-2)"/>
        <g id="Group_1444" data-name="Group 1444" transform="translate(-1 27.44)">
          <path id="Path_152" data-name="Path 152" d="M0-15.685l40.534-8.124H71.5l40.769-16.723" transform="translate(1 40.982)" fill="none" stroke="#a0aabe" stroke-width="0.5"/>
        </g>
        <g id="Group_1446" data-name="Group 1446" transform="translate(0.172 17.723)">
          <path id="Path_160" data-name="Path 160" d="M0-13.728l23.961-7.9H63.512l24.924-12.11h23.715" transform="translate(0 33.777)" fill="none" stroke="#1fb4ad" stroke-width="1.5"/>
        </g>
      </g>
      <g id="retargeting_graph" data-name="retargeting graph" transform="translate(-3747 2691.416)">
        <g id="Group_1478" data-name="Group 1478" transform="translate(0 0)">
          <g id="Group_1464" data-name="Group 1464">
            <g id="Group_19889" data-name="Group 19889">
              <g id="Group_1422" data-name="Group 1422" transform="translate(0.133 77.152)">
                <path id="Path_130" data-name="Path 130" d="M-73.458,0H-185.845" transform="translate(185.845)" fill="none" stroke="#e6e6e6" stroke-width="0.1"/>
              </g>
              <g id="Group_1423" data-name="Group 1423" transform="translate(0 60.17)">
                <path id="Path_131" data-name="Path 131" d="M-73.549,0H-186.068" transform="translate(186.068)" fill="none" stroke="#e6e6e6" stroke-width="0.1"/>
              </g>
              <g id="Group_1424" data-name="Group 1424" transform="translate(0.133 43.541)">
                <path id="Path_132" data-name="Path 132" d="M-73.458,0H-185.845" transform="translate(185.845)" fill="none" stroke="#e6e6e6" stroke-width="0.1"/>
              </g>
              <g id="Group_1425" data-name="Group 1425" transform="translate(0.133 26.759)">
                <path id="Path_133" data-name="Path 133" d="M-73.458,0H-185.845" transform="translate(185.845)" fill="none" stroke="#e6e6e6" stroke-width="0.1"/>
              </g>
              <g id="Group_1426" data-name="Group 1426" transform="translate(0 9.805)">
                <path id="Path_134" data-name="Path 134" d="M-73.549,0H-186.068" transform="translate(186.068)" fill="none" stroke="#e6e6e6" stroke-width="0.1"/>
              </g>
              <g id="Group_1427" data-name="Group 1427" transform="translate(9.688)">
                <path id="Path_135" data-name="Path 135" d="M0-50.43v-77.152" transform="translate(0 127.582)" fill="none" stroke="#e6e6e6" stroke-width="0.1"/>
              </g>
              <g id="Group_1428" data-name="Group 1428" transform="translate(40.838)">
                <path id="Path_136" data-name="Path 136" d="M0-50.43v-77.152" transform="translate(0 127.582)" fill="none" stroke="#e6e6e6" stroke-width="0.1"/>
              </g>
              <g id="Group_1429" data-name="Group 1429" transform="translate(71.816)">
                <path id="Path_137" data-name="Path 137" d="M0-50.43v-77.152" transform="translate(0 127.582)" fill="none" stroke="#e6e6e6" stroke-width="0.1"/>
              </g>
              <g id="Group_1430" data-name="Group 1430" transform="translate(102.964)">
                <path id="Path_138" data-name="Path 138" d="M0-50.43v-77.152" transform="translate(0 127.582)" fill="none" stroke="#e6e6e6" stroke-width="0.1"/>
              </g>
            </g>
          </g>
          <path id="Path_1730" data-name="Path 1730" d="M0,17.257,34.6,5.5,90.994,8.667l21.313,3.45V51.55H0Z" transform="translate(0 25.387)" opacity="0.5" fill="url(#linear-gradient-3)"/>
          <path id="Path_1729" data-name="Path 1729" d="M0,6,83.281,26.774l29.026,2.536V51.754H0Z" transform="translate(0 25.183)" opacity="0.3" fill="url(#linear-gradient-4)"/>
          <g id="Group_1448" data-name="Group 1448" transform="translate(0.138 30.659)">
            <path id="Path_164" data-name="Path 164" d="M-.035.4,83.523,21.55l28.534,2.11" fill="none" stroke="#a0aabe" stroke-width="0.5"/>
          </g>
          <g id="Group_1450" data-name="Group 1450" transform="translate(0.138 30.205)">
            <path id="Path_168" data-name="Path 168" d="M0-8,34.544-19.709l28.033,1.824,28.341,1.379,21.463,3.366" transform="translate(0 19.709)" fill="none" stroke="#53c1f3" stroke-width="1.5"/>
          </g>
        </g>
      </g>
      <g id="retention_graph" data-name="retention graph" transform="translate(-3609 2691.416)">
        <g id="Group_1465" data-name="Group 1465" transform="translate(0 0)">
          <g id="Group_1414" data-name="Group 1414" transform="translate(0 60.17)">
            <path id="Path_122" data-name="Path 122" d="M-73.549,0H-186.068" transform="translate(186.068)" fill="none" stroke="#e6e6e6" stroke-width="0.1"/>
          </g>
          <g id="Group_1463" data-name="Group 1463" transform="translate(0 77.103)">
            <path id="Path_122-2" data-name="Path 122" d="M-73.549,0H-186.068" transform="translate(186.068)" fill="none" stroke="#e6e6e6" stroke-width="0.1"/>
          </g>
          <g id="Group_1415" data-name="Group 1415" transform="translate(0.133 43.54)">
            <path id="Path_123" data-name="Path 123" d="M-73.458,0H-185.844" transform="translate(185.844)" fill="none" stroke="#e6e6e6" stroke-width="0.1"/>
          </g>
          <g id="Group_1416" data-name="Group 1416" transform="translate(0.133 26.759)">
            <path id="Path_124" data-name="Path 124" d="M-73.458,0H-185.844" transform="translate(185.844)" fill="none" stroke="#e6e6e6" stroke-width="0.1"/>
          </g>
          <g id="Group_1417" data-name="Group 1417" transform="translate(0 9.805)">
            <path id="Path_125" data-name="Path 125" d="M-73.549,0H-186.068" transform="translate(186.068)" fill="none" stroke="#e6e6e6" stroke-width="0.1"/>
          </g>
          <g id="Group_1418" data-name="Group 1418" transform="translate(9.688)">
            <path id="Path_126" data-name="Path 126" d="M0-50.431v-77.151" transform="translate(0 127.582)" fill="none" stroke="#e6e6e6" stroke-width="0.1"/>
          </g>
          <g id="Group_1419" data-name="Group 1419" transform="translate(40.838)">
            <path id="Path_127" data-name="Path 127" d="M0-50.431v-77.151" transform="translate(0 127.582)" fill="none" stroke="#e6e6e6" stroke-width="0.1"/>
          </g>
          <g id="Group_1420" data-name="Group 1420" transform="translate(71.817)">
            <path id="Path_128" data-name="Path 128" d="M0-50.431v-77.151" transform="translate(0 127.582)" fill="none" stroke="#e6e6e6" stroke-width="0.1"/>
          </g>
          <g id="Group_1421" data-name="Group 1421" transform="translate(102.964)">
            <path id="Path_129" data-name="Path 129" d="M0-50.431v-77.151" transform="translate(0 127.582)" fill="none" stroke="#e6e6e6" stroke-width="0.1"/>
          </g>
        </g>
        <path id="Path_1733" data-name="Path 1733" d="M33.977,29.806,58.915,28.8l41.222-16.327h0l12.383.693V54.379H0V37.538Z" transform="translate(0 22.558)" opacity="0.5" fill="url(#linear-gradient-4)"/>
        <path id="Path_1734" data-name="Path 1734" d="M45.614,2.666h0L82.089.736,98.472-11.217l14.047-3.538V43.55H0V17.611Z" transform="translate(0 33.386)" opacity="0.5" fill="url(#linear-gradient-6)"/>
        <g id="Group_1453" data-name="Group 1453" transform="translate(0 34.511)">
          <path id="Path_172" data-name="Path 172" d="M0-16.509,34.075-24.33l24.813-.96,41.307-16.3,12.324.752" transform="translate(0 41.94)" fill="none" stroke="#a0aabe" stroke-width="0.5"/>
        </g>
        <g id="Group_1462" data-name="Group 1462" transform="translate(0 18.301)">
          <path id="Path_182" data-name="Path 182" d="M0-22.678,45.52-38.855l36.918-1.879L98.749-52.83l13.77-3.055" transform="translate(0 55.885)" fill="none" stroke="#5586ef" stroke-width="1.5"/>
        </g>
      </g>
    </g>
  </g>
</svg>
