<svg xmlns="http://www.w3.org/2000/svg" xmlns:xlink="http://www.w3.org/1999/xlink" width="650" height="168" viewBox="0 0 650 168">
  <defs>
    <filter id="Rectangle_26346" x="0" y="0" width="225" height="168" filterUnits="userSpaceOnUse">
      <feOffset dy="3" input="SourceAlpha"/>
      <feGaussianBlur stdDeviation="3" result="blur"/>
      <feFlood flood-opacity="0.161"/>
      <feComposite operator="in" in2="blur"/>
      <feComposite in="SourceGraphic"/>
    </filter>
    <clipPath id="clip-path">
      <rect id="Rectangle_24558" data-name="Rectangle 24558" width="132.112" height="64.761" transform="translate(0)" fill="#fff" stroke="#707070" stroke-width="1"/>
    </clipPath>
    <clipPath id="clip-path-2">
      <path id="Path_36438" data-name="Path 36438" d="M0,.2,122.019-.123,124.756,39l-16.833,6.777L53.53,64.956H0Z" transform="translate(0 0.123)" fill="#fff" stroke="#5586ef" stroke-width="1"/>
    </clipPath>
    <clipPath id="clip">
      <use xlink:href="#fill"/>
    </clipPath>
    <clipPath id="clip-2">
      <use xlink:href="#fill-2"/>
    </clipPath>
    <clipPath id="clip-3">
      <use xlink:href="#fill-3"/>
    </clipPath>
    <clipPath id="clip-4">
      <use xlink:href="#fill-4"/>
    </clipPath>
    <clipPath id="clip-5">
      <use xlink:href="#fill-5"/>
    </clipPath>
    <clipPath id="clip-6">
      <use xlink:href="#fill-6"/>
    </clipPath>
    <clipPath id="clip-7">
      <use xlink:href="#fill-7"/>
    </clipPath>
    <clipPath id="clip-8">
      <use xlink:href="#fill-8"/>
    </clipPath>
    <clipPath id="clip-9">
      <use xlink:href="#fill-9"/>
    </clipPath>
  </defs>
  <g id="Group_22233" data-name="Group 22233" transform="translate(4115 -3995)">
    <g id="Group_20078" data-name="Group 20078" transform="translate(5 76)">
      <g transform="matrix(1, 0, 0, 1, -4120, 3919)" filter="url(#Rectangle_26346)">
        <rect id="Rectangle_26346-2" data-name="Rectangle 26346" width="207" height="150" rx="10" transform="translate(9 6)" fill="#fff"/>
      </g>
      <g id="Group_20003" data-name="Group 20003" transform="translate(-4111 3925)">
        <path id="Rectangle_23721" data-name="Rectangle 23721" d="M10,0H210a0,0,0,0,1,0,0V150a0,0,0,0,1,0,0H10A10,10,0,0,1,0,140V10A10,10,0,0,1,10,0Z" fill="#f3f7ff"/>
        <text id="Budget_Optimization" data-name="Budget 
Optimization" transform="translate(70 70)" fill="#43425d" font-size="20" font-family="Helvetica"><tspan x="0" y="0">Budget </tspan><tspan x="0" y="24">Optimization</tspan></text>
      </g>
      <g id="Group_20070" data-name="Group 20070" transform="translate(-3896 3925)">
        <g id="Group_20002" data-name="Group 20002" transform="translate(1 -193)">
          <path id="Rectangle_23721-2" data-name="Rectangle 23721" d="M0,0H422a10,10,0,0,1,10,10V140a10,10,0,0,1-10,10H0a0,0,0,0,1,0,0V0A0,0,0,0,1,0,0Z" transform="translate(-7 193)" fill="#fff"/>
        </g>
        <g id="Group_20018" data-name="Group 20018" transform="translate(18 29)">
          <g id="Group_25072" data-name="Group 25072" transform="translate(1 -11)">
            <g id="Group_25071" data-name="Group 25071" transform="translate(210 2)">
              <g id="Group_16474" data-name="Group 16474">
                <g id="Group_12856" data-name="Group 12856">
                  <g id="Rectangle_22895" data-name="Rectangle 22895" transform="translate(0 30)" fill="#f8f8f8" stroke="#c8d2e6" stroke-width="0.05">
                    <rect width="163" height="20" stroke="none"/>
                    <rect x="0.025" y="0.025" width="162.95" height="19.95" fill="none"/>
                  </g>
                  <text id="_1.0x_-_1.5x" data-name="1.0x - 1.5x" transform="translate(12 42)" fill="#0d182f" font-size="8" font-family="Helvetica"><tspan x="0" y="0">1.0x - 1.5x</tspan></text>
                  <text id="_800" data-name="$ 800" transform="translate(122 44)" fill="#0d182f" font-size="10" font-family="Helvetica"><tspan x="0" y="0">$ 800</tspan></text>
                  <g id="Rectangle_22896" data-name="Rectangle 22896" transform="translate(0 50)" fill="#fefefe" stroke="#c8d2e6" stroke-width="0.05">
                    <rect width="163" height="21" stroke="none"/>
                    <rect x="0.025" y="0.025" width="162.95" height="20.95" fill="none"/>
                  </g>
                  <text id="_2500" data-name="$ 2500" transform="translate(123 62)" fill="#0d182f" font-size="8" font-family="Helvetica"><tspan x="0" y="0">$ 2500</tspan></text>
                  <text id="_1.60x_-_2.00x" data-name="1.60x - 2.00x" transform="translate(12 63)" fill="#0d182f" font-size="9" font-family="Helvetica"><tspan x="0" y="0">1.60x - 2.00x</tspan></text>
                  <g id="Rectangle_22897" data-name="Rectangle 22897" transform="translate(0 71)" fill="#f8f8f8" stroke="#c8d2e6" stroke-width="0.05">
                    <rect width="163" height="20" stroke="none"/>
                    <rect x="0.025" y="0.025" width="162.95" height="19.95" fill="none"/>
                  </g>
                  <g id="Rectangle_22898" data-name="Rectangle 22898" transform="translate(0 91)" fill="#fefefe" stroke="#c8d2e6" stroke-width="0.05">
                    <rect width="163" height="20" stroke="none"/>
                    <rect x="0.025" y="0.025" width="162.95" height="19.95" fill="none"/>
                  </g>
                  <text id="Maximum:" transform="translate(12 102)" fill="#0d182f" font-size="8" font-family="Helvetica"><tspan x="0" y="0">Maximum:</tspan></text>
                  <text id="_7000" data-name="$ 7000" transform="translate(124 102)" fill="#0d182f" font-size="8" font-family="Helvetica"><tspan x="0" y="0">$ 7000</tspan></text>
                  <g id="Rectangle_24913" data-name="Rectangle 24913" transform="translate(0 9)" fill="#fefefe" stroke="#c8d2e6" stroke-width="0.05">
                    <rect width="163" height="21" stroke="none"/>
                    <rect x="0.025" y="0.025" width="162.95" height="20.95" fill="none"/>
                  </g>
                  <text id="Minimum:" transform="translate(12 23)" fill="#0d182f" font-size="9" font-family="Helvetica"><tspan x="0" y="0">Minimum:</tspan></text>
                  <text id="_500" data-name="$ 500" transform="translate(122 22)" fill="#0d182f" font-size="8" font-family="Helvetica"><tspan x="0" y="0">$ 500</tspan></text>
                </g>
              </g>
            </g>
            <g id="Group_16518" data-name="Group 16518" transform="translate(210 71.61)">
              <g id="Rectangle_25101" data-name="Rectangle 25101" transform="translate(0 0.39)" fill="#f6f6f8" stroke="#5586ef" stroke-width="1">
                <rect width="163" height="20" stroke="none"/>
                <rect x="0.5" y="0.5" width="162" height="19" fill="none"/>
              </g>
              <text id="_2.00x_-_3.00x" data-name="2.00x - 3.00x" transform="translate(16 12.39)" fill="#3d2870" font-size="9" font-family="Helvetica"><tspan x="0" y="0">2.00x - 3.00x</tspan></text>
              <text id="_5000" data-name="$ 5000" transform="translate(123 13.39)" fill="#3d2870" font-size="10" font-family="Helvetica"><tspan x="0" y="0">$ 5000</tspan></text>
              <g id="Group_16519" data-name="Group 16519" transform="translate(2.162 6.85)">
                <path id="Path_36804" data-name="Path 36804" d="M3.1,0,6.166,7.658,0,7.757Z" transform="translate(12.184 0.224) rotate(90)" fill="#3d2870"/>
                <path id="Path_36805" data-name="Path 36805" d="M.31,2.042a3.249,3.249,0,0,1,6.033,0l.075.187A3.249,3.249,0,0,1,3.4,6.684H3.252A3.249,3.249,0,0,1,.236,2.229Z" transform="translate(6.684 0) rotate(90)" fill="#3d2870"/>
              </g>
            </g>
          </g>
          <g id="Group_25070" data-name="Group 25070" transform="translate(-25 -23)">
            <g id="Rectangle_24879" data-name="Rectangle 24879" transform="translate(169 70)" fill="#fff" stroke="#fff" stroke-width="1">
              <rect width="1" height="15" stroke="none"/>
              <rect x="0.5" y="0.5" height="14" fill="none"/>
            </g>
            <g id="Rectangle_24880" data-name="Rectangle 24880" transform="translate(42 70)" fill="#fff" stroke="#fff" stroke-width="1">
              <rect id="fill" height="15" stroke="none"/>
              <path d="M0,0.5h0.000010000005204346962M0.5,0v15M0.000010000005204346962,14.5h-0.000010000005204346962M-0.49998999999479565,15v-15" fill="none" clip-path="url(#clip)"/>
            </g>
            <g id="Group_25069" data-name="Group 25069" transform="translate(9.687)">
              <rect id="Rectangle_25163" data-name="Rectangle 25163" width="186" height="89" rx="5" transform="translate(0.313)" fill="#fff"/>
            </g>
            <g id="Group_16621" data-name="Group 16621" transform="translate(45.178 18.438)">
              <g id="Group_16007" data-name="Group 16007" transform="translate(0.464 0)">
                <g id="Mask_Group_185" data-name="Mask Group 185" transform="translate(0.091 0.318)" clip-path="url(#clip-path)">
                  <g id="Path_36440" data-name="Path 36440" transform="translate(2.59 0)" fill="#fff">
                    <path d="M 63.46579742431641 123.4315948486328 C 55.36891555786133 123.4315948486328 47.51611709594727 121.8465957641602 40.1254768371582 118.7206192016602 C 36.57301712036133 117.2180557250977 33.14639663696289 115.3581161499023 29.94079780578613 113.1924591064453 C 26.76475715637207 111.046760559082 23.77801704406738 108.5824737548828 21.06357765197754 105.8680191040039 C 18.3491382598877 103.1535797119141 15.88483715057373 100.1668548583984 13.73913764953613 96.99081420898438 C 11.57347774505615 93.78521728515625 9.713537216186523 90.35859680175781 8.210977554321289 86.80611419677734 C 5.084997653961182 79.41549682617188 3.49999737739563 71.56267547607422 3.49999737739563 63.46579742431641 C 3.49999737739563 55.36893844604492 5.084997653961182 47.51611709594727 8.210977554321289 40.1254768371582 C 9.713537216186523 36.57301712036133 11.57347774505615 33.14639663696289 13.73913764953613 29.94079780578613 C 15.88483715057373 26.76475715637207 18.3491382598877 23.77801704406738 21.06357765197754 21.06357765197754 C 23.77801704406738 18.3491382598877 26.76475715637207 15.88483715057373 29.94079780578613 13.73913764953613 C 33.14639663696289 11.57347774505615 36.57301712036133 9.713537216186523 40.1254768371582 8.210977554321289 C 47.51611709594727 5.084997653961182 55.36893844604492 3.49999737739563 63.46579742431641 3.49999737739563 C 71.56267547607422 3.49999737739563 79.41549682617188 5.084997653961182 86.80611419677734 8.210977554321289 C 90.35859680175781 9.713537216186523 93.78521728515625 11.57347774505615 96.99081420898438 13.73913764953613 C 100.1668548583984 15.88483715057373 103.1535797119141 18.3491382598877 105.8680191040039 21.06357765197754 C 108.5824737548828 23.77801704406738 111.046760559082 26.76475715637207 113.1924591064453 29.94079780578613 C 115.3581161499023 33.14639663696289 117.2180557250977 36.57301712036133 118.7206192016602 40.1254768371582 C 121.8465957641602 47.51611709594727 123.4315948486328 55.36891555786133 123.4315948486328 63.46579742431641 C 123.4315948486328 71.56267547607422 121.8465957641602 79.41549682617188 118.7206192016602 86.80611419677734 C 117.2180557250977 90.35859680175781 115.3581161499023 93.78521728515625 113.1924591064453 96.99081420898438 C 111.046760559082 100.1668548583984 108.5824737548828 103.1535797119141 105.8680191040039 105.8680191040039 C 103.1535797119141 108.5824737548828 100.1668548583984 111.046760559082 96.99081420898438 113.1924591064453 C 93.78521728515625 115.3581161499023 90.35859680175781 117.2180557250977 86.80611419677734 118.7206192016602 C 79.41549682617188 121.8465957641602 71.56267547607422 123.4315948486328 63.46579742431641 123.4315948486328 Z" stroke="none"/>
                    <path d="M 63.46579742431641 7 C 32.33045959472656 7 7 32.33045959472656 7 63.46579742431641 C 7 94.60113525390625 32.33045959472656 119.9315948486328 63.46579742431641 119.9315948486328 C 94.60113525390625 119.9315948486328 119.9315948486328 94.60113525390625 119.9315948486328 63.46579742431641 C 119.9315948486328 32.33045959472656 94.60113525390625 7 63.46579742431641 7 M 63.46579742431641 0 C 98.51698303222656 0 126.9315948486328 28.41461181640625 126.9315948486328 63.46579742431641 C 126.9315948486328 98.51698303222656 98.51698303222656 126.9315948486328 63.46579742431641 126.9315948486328 C 28.41461181640625 126.9315948486328 0 98.51698303222656 0 63.46579742431641 C 0 28.41461181640625 28.41461181640625 0 63.46579742431641 0 Z" stroke="none" fill="#ebf1ff"/>
                  </g>
                </g>
                <g id="Mask_Group_186" data-name="Mask Group 186" clip-path="url(#clip-path-2)">
                  <g id="Path_36439" data-name="Path 36439" transform="translate(2.682 0.318)" fill="#fff">
                    <path d="M 63.46579742431641 123.4315948486328 C 55.36891555786133 123.4315948486328 47.51611709594727 121.8465957641602 40.1254768371582 118.7206192016602 C 36.57301712036133 117.2180557250977 33.14639663696289 115.3581161499023 29.94079780578613 113.1924591064453 C 26.76475715637207 111.046760559082 23.77801704406738 108.5824737548828 21.06357765197754 105.8680191040039 C 18.3491382598877 103.1535797119141 15.88483715057373 100.1668548583984 13.73913764953613 96.99081420898438 C 11.57347774505615 93.78521728515625 9.713537216186523 90.35859680175781 8.210977554321289 86.80611419677734 C 5.084997653961182 79.41549682617188 3.49999737739563 71.56267547607422 3.49999737739563 63.46579742431641 C 3.49999737739563 55.36893844604492 5.084997653961182 47.51611709594727 8.210977554321289 40.1254768371582 C 9.713537216186523 36.57301712036133 11.57347774505615 33.14639663696289 13.73913764953613 29.94079780578613 C 15.88483715057373 26.76475715637207 18.3491382598877 23.77801704406738 21.06357765197754 21.06357765197754 C 23.77801704406738 18.3491382598877 26.76475715637207 15.88483715057373 29.94079780578613 13.73913764953613 C 33.14639663696289 11.57347774505615 36.57301712036133 9.713537216186523 40.1254768371582 8.210977554321289 C 47.51611709594727 5.084997653961182 55.36893844604492 3.49999737739563 63.46579742431641 3.49999737739563 C 71.56267547607422 3.49999737739563 79.41549682617188 5.084997653961182 86.80611419677734 8.210977554321289 C 90.35859680175781 9.713537216186523 93.78521728515625 11.57347774505615 96.99081420898438 13.73913764953613 C 100.1668548583984 15.88483715057373 103.1535797119141 18.3491382598877 105.8680191040039 21.06357765197754 C 108.5824737548828 23.77801704406738 111.046760559082 26.76475715637207 113.1924591064453 29.94079780578613 C 115.3581161499023 33.14639663696289 117.2180557250977 36.57301712036133 118.7206192016602 40.1254768371582 C 121.8465957641602 47.51611709594727 123.4315948486328 55.36891555786133 123.4315948486328 63.46579742431641 C 123.4315948486328 71.56267547607422 121.8465957641602 79.41549682617188 118.7206192016602 86.80611419677734 C 117.2180557250977 90.35859680175781 115.3581161499023 93.78521728515625 113.1924591064453 96.99081420898438 C 111.046760559082 100.1668548583984 108.5824737548828 103.1535797119141 105.8680191040039 105.8680191040039 C 103.1535797119141 108.5824737548828 100.1668548583984 111.046760559082 96.99081420898438 113.1924591064453 C 93.78521728515625 115.3581161499023 90.35859680175781 117.2180557250977 86.80611419677734 118.7206192016602 C 79.41549682617188 121.8465957641602 71.56267547607422 123.4315948486328 63.46579742431641 123.4315948486328 Z" stroke="none"/>
                    <path d="M 63.46579742431641 7 C 32.33045959472656 7 7 32.33045959472656 7 63.46579742431641 C 7 94.60113525390625 32.33045959472656 119.9315948486328 63.46579742431641 119.9315948486328 C 94.60113525390625 119.9315948486328 119.9315948486328 94.60113525390625 119.9315948486328 63.46579742431641 C 119.9315948486328 32.33045959472656 94.60113525390625 7 63.46579742431641 7 M 63.46579742431641 0 C 98.51698303222656 0 126.9315948486328 28.41461181640625 126.9315948486328 63.46579742431641 C 126.9315948486328 98.51698303222656 98.51698303222656 126.9315948486328 63.46579742431641 126.9315948486328 C 28.41461181640625 126.9315948486328 0 98.51698303222656 0 63.46579742431641 C 0 28.41461181640625 28.41461181640625 0 63.46579742431641 0 Z" stroke="none" fill="#5586ef"/>
                  </g>
                </g>
                <path id="Path_36626" data-name="Path 36626" d="M7.025,0c3.88,0,63,6,63,6s-59.124,6-63,6S0,9.311,0,6,3.145,0,7.025,0Z" transform="translate(57.591 59.434) rotate(-22)" fill="#3d2870"/>
              </g>
              <g id="Rectangle_25096" data-name="Rectangle 25096" transform="translate(41.591 17.62) rotate(150)" fill="#cadbff" stroke="#fff" stroke-width="1">
                <rect id="fill-2" width="0.993" height="14.895" stroke="none"/>
                <path d="M0,0.5h0.9929762482643127M0.5,0v14.894644737243652M0.9929762482643127,14.394644737243652h-0.9929762482643127M0.49297624826431274,14.894644737243652v-14.894644737243652" fill="none" clip-path="url(#clip-2)"/>
              </g>
              <g id="Rectangle_25098" data-name="Rectangle 25098" transform="matrix(-0.259, 0.966, -0.966, -0.259, 17.948, 44.641)" fill="#cadbff" stroke="#fff" stroke-width="1">
                <rect id="fill-3" width="0.993" height="14.895" stroke="none"/>
                <path d="M0,0.5h0.9929762482643127M0.5,0v14.894644737243652M0.9929762482643127,14.394644737243652h-0.9929762482643127M0.49297624826431274,14.894644737243652v-14.894644737243652" fill="none" clip-path="url(#clip-3)"/>
              </g>
              <g id="Rectangle_25099" data-name="Rectangle 25099" transform="matrix(-0.259, -0.966, 0.966, -0.259, 115.766, 45.601)" fill="#fff" stroke="#fff" stroke-width="1">
                <rect id="fill-4" width="0.993" height="14.895" stroke="none"/>
                <path d="M0,0.5h0.9929762482643127M0.5,0v14.894644737243652M0.9929762482643127,14.394644737243652h-0.9929762482643127M0.49297624826431274,14.894644737243652v-14.894644737243652" fill="none" clip-path="url(#clip-4)"/>
              </g>
              <g id="Rectangle_25100" data-name="Rectangle 25100" transform="translate(91.736 18.116) rotate(-150)" fill="#cadbff" stroke="#fff" stroke-width="1">
                <rect id="fill-5" width="0.993" height="14.895" stroke="none"/>
                <path d="M0,0.5h0.9929762482643127M0.5,0v14.894644737243652M0.9929762482643127,14.394644737243652h-0.9929762482643127M0.49297624826431274,14.894644737243652v-14.894644737243652" fill="none" clip-path="url(#clip-5)"/>
              </g>
              <g id="Rectangle_25161" data-name="Rectangle 25161" transform="translate(13.822 64.562) rotate(90)" fill="#cadbff" stroke="#cadbff" stroke-width="1">
                <rect id="fill-6" height="14" stroke="none"/>
                <path d="M0,0.5h0.000010000005204346962M0.5,0v14M0.000010000005204346962,13.5h-0.000010000005204346962M-0.49998999999479565,14v-14" fill="none" clip-path="url(#clip-6)"/>
              </g>
              <g id="Rectangle_25162" data-name="Rectangle 25162" transform="translate(134.054 64.543) rotate(90)" fill="#cadbff" stroke="#cadbff" stroke-width="1">
                <rect id="fill-7" width="0.993" height="14.895" stroke="none"/>
                <path d="M0,0.5h0.9929762482643127M0.5,0v14.894644737243652M0.9929762482643127,14.394644737243652h-0.9929762482643127M0.49297624826431274,14.894644737243652v-14.894644737243652" fill="none" clip-path="url(#clip-7)"/>
              </g>
            </g>
            <text id="_2.9x" data-name="2.9x" transform="translate(176 55)" fill="#0d182f" font-size="12" font-family="Helvetica"><tspan x="0" y="0">2.9x</tspan></text>
            <rect id="Rectangle_25164" data-name="Rectangle 25164" width="183" height="35" rx="5" transform="translate(18 90)" fill="#fff"/>
            <text id="_4800" data-name="$ 4800" transform="translate(125 118)" fill="#0d182f" font-size="9" font-family="Helvetica"><tspan x="0" y="0">$ 4800</tspan></text>
            <g id="Group_16622" data-name="Group 16622" transform="translate(46.67 95.89)">
              <path id="Path_36625" data-name="Path 36625" d="M0,0H129.087V6.951H0Z" transform="translate(0 3.972)" fill="#ebf1ff"/>
              <rect id="Rectangle_24878" data-name="Rectangle 24878" width="97" height="7" transform="translate(1.33 4.11)" fill="#5586ef"/>
              <g id="Path_36627" data-name="Path 36627" transform="translate(93.46 2.449)" fill="#3d2870">
                <path d="M 4.754878044128418 8.759757995605469 C 2.546577930450439 8.759757995605469 0.7499980330467224 6.963178157806396 0.7499980330467224 4.754878044128418 C 0.7499980330467224 2.546577930450439 2.546577930450439 0.7499980330467224 4.754878044128418 0.7499980330467224 C 6.963178157806396 0.7499980330467224 8.759757995605469 2.546577930450439 8.759757995605469 4.754878044128418 C 8.759757995605469 6.963178157806396 6.963178157806396 8.759757995605469 4.754878044128418 8.759757995605469 Z" stroke="none"/>
                <path d="M 4.754878044128418 1.499998092651367 C 2.960127830505371 1.499998092651367 1.499998092651367 2.960127830505371 1.499998092651367 4.754878044128418 C 1.499998092651367 6.549628257751465 2.960127830505371 8.009757995605469 4.754878044128418 8.009757995605469 C 6.549628257751465 8.009757995605469 8.009757995605469 6.549628257751465 8.009757995605469 4.754878044128418 C 8.009757995605469 2.960127830505371 6.549628257751465 1.499998092651367 4.754878044128418 1.499998092651367 M 4.754878044128418 -1.9073486328125e-06 C 7.380928039550781 -1.9073486328125e-06 9.509757995605469 2.128828048706055 9.509757995605469 4.754878044128418 C 9.509757995605469 7.380928039550781 7.380928039550781 9.509757995605469 4.754878044128418 9.509757995605469 C 2.128828048706055 9.509757995605469 -1.9073486328125e-06 7.380928039550781 -1.9073486328125e-06 4.754878044128418 C -1.9073486328125e-06 2.128828048706055 2.128828048706055 -1.9073486328125e-06 4.754878044128418 -1.9073486328125e-06 Z" stroke="none" fill="#3d2870"/>
              </g>
              <g id="Rectangle_25165" data-name="Rectangle 25165" transform="translate(129.583 14.895) rotate(180)" fill="#cadbff" stroke="#cadbff" stroke-width="1">
                <rect id="fill-8" width="0.993" height="14.895" stroke="none"/>
                <path d="M0,0.5h0.9929762482643127M0.5,0v14.894644737243652M0.9929762482643127,14.394644737243652h-0.9929762482643127M0.49297624826431274,14.894644737243652v-14.894644737243652" fill="none" clip-path="url(#clip-8)"/>
              </g>
              <g id="Rectangle_25166" data-name="Rectangle 25166" transform="translate(1.489 14.895) rotate(180)" fill="#cadbff" stroke="#cadbff" stroke-width="1">
                <rect id="fill-9" width="0.993" height="14.895" stroke="none"/>
                <path d="M0,0.5h0.9929762482643127M0.5,0v14.894644737243652M0.9929762482643127,14.394644737243652h-0.9929762482643127M0.49297624826431274,14.894644737243652v-14.894644737243652" fill="none" clip-path="url(#clip-9)"/>
              </g>
            </g>
          </g>
        </g>
      </g>
      <g id="Group_20021" data-name="Group 20021" transform="translate(-4087 3991)">
        <g id="Group_15458" data-name="Group 15458" transform="translate(0 0)">
          <g id="surf_-_automation" data-name="surf - automation">
            <g id="Group_5235" data-name="Group 5235">
              <g id="Group_5155" data-name="Group 5155">
                <rect id="Rectangle_19924" data-name="Rectangle 19924" width="25" height="25" rx="12.5" fill="#35344b"/>
              </g>
            </g>
          </g>
        </g>
        <g id="deep" transform="translate(3 3)">
          <path id="Path_36500" data-name="Path 36500" d="M18.9,11.135a2.072,2.072,0,0,0-2.6.908l-.926-.381a5.376,5.376,0,0,0-.007-3.656l.924-.385a2.071,2.071,0,1,0-.184-.444l-.925.385a5.41,5.41,0,0,0-2.59-2.58l.381-.926a2.069,2.069,0,1,0-.444-.183l-.381.926a5.377,5.377,0,0,0-3.656.007l-.385-.924a2.076,2.076,0,1,0-.443.185l.385.925a5.409,5.409,0,0,0-2.58,2.59L4.543,7.2a2.066,2.066,0,1,0-.182.444l.926.381a5.377,5.377,0,0,0,.007,3.656l-.925.385a2.069,2.069,0,1,0,.185.443l.925-.385a5.409,5.409,0,0,0,2.59,2.579l-.381.927a2.069,2.069,0,1,0,.444.183l.381-.926a5.376,5.376,0,0,0,3.656-.007l.385.924A2.069,2.069,0,1,0,13,15.621l-.385-.925a5.409,5.409,0,0,0,2.579-2.59l.927.381A2.069,2.069,0,1,0,18.9,11.135ZM13.619,10.8a.957.957,0,0,1-.924-.715H10.91l1.262,1.262a.955.955,0,1,1-.34.34L10.57,10.425v1.784a.955.955,0,1,1-.48,0V10.425L8.828,11.687a.955.955,0,1,1-.34-.34L9.75,10.085H7.966a.955.955,0,1,1,0-.48H9.75L8.488,8.342A.955.955,0,1,1,8.828,8L10.09,9.265V7.481a.955.955,0,1,1,.48,0V9.265L11.833,8a.956.956,0,1,1,.34.34L10.91,9.6h1.784a.955.955,0,1,1,.924,1.2Zm0,0" transform="translate(-0.488 0.003)" fill="#f3f7ff"/>
          <g id="Group_16718" data-name="Group 16718" transform="translate(6.043 6.041)">
            <path id="Path_36501" data-name="Path 36501" d="M234.492,316.756a.475.475,0,1,0,.474-.474A.474.474,0,0,0,234.492,316.756Zm0,0" transform="translate(-231.204 -309.705)" fill="#eef"/>
            <path id="Path_36502" data-name="Path 36502" d="M176.895,292.227a.474.474,0,1,0,.335.139A.474.474,0,0,0,176.895,292.227Zm0,0" transform="translate(-175.457 -286.613)" fill="#eef"/>
            <path id="Path_36503" data-name="Path 36503" d="M152.822,234.137a.475.475,0,1,0,.474.475A.475.475,0,0,0,152.822,234.137Zm0,0" transform="translate(-152.348 -230.849)" fill="#eef"/>
            <path id="Path_36504" data-name="Path 36504" d="M293.386,176.863a.471.471,0,1,0-.335.14A.474.474,0,0,0,293.386,176.863Zm0,0" transform="translate(-286.962 -175.09)" fill="#eef"/>
            <path id="Path_36505" data-name="Path 36505" d="M176.882,176.055a.475.475,0,1,0,.335.139A.474.474,0,0,0,176.882,176.055Zm0,0" transform="translate(-175.444 -175.092)" fill="#eef"/>
            <path id="Path_36506" data-name="Path 36506" d="M235.441,152.467a.475.475,0,1,0-.475.474A.475.475,0,0,0,235.441,152.467Zm0,0" transform="translate(-231.204 -151.993)" fill="#eef"/>
            <path id="Path_36507" data-name="Path 36507" d="M293.052,293.169a.475.475,0,1,0-.336-.139A.475.475,0,0,0,293.052,293.169Zm0,0" transform="translate(-286.964 -286.606)" fill="#eef"/>
            <path id="Path_36508" data-name="Path 36508" d="M317.111,234.137a.475.475,0,1,0,.475.475A.475.475,0,0,0,317.111,234.137Zm0,0" transform="translate(-310.06 -230.849)" fill="#eef"/>
          </g>
        </g>
      </g>
    </g>
  </g>
</svg>
