<svg xmlns="http://www.w3.org/2000/svg" width="17.3" height="16.592" viewBox="0 0 17.3 16.592">
  <g id="grammar" transform="translate(-7.85 -9.85)">
    <path id="Path_8381" data-name="Path 8381" d="M9.417,21.438h2.125a1.418,1.418,0,0,0,1.417-1.417V17.9a.7.7,0,0,0-.022-.177.7.7,0,0,0,.022-.177V15.771A1.773,1.773,0,0,0,11.188,14H9.771a1.759,1.759,0,0,0-1.252.519.708.708,0,1,0,1,1,.353.353,0,0,1,.25-.1h1.417a.355.355,0,0,1,.354.354v1.063H10.125A2.127,2.127,0,0,0,8,18.958v1.063A1.418,1.418,0,0,0,9.417,21.438Zm0-2.479a.709.709,0,0,1,.708-.708h1.417v1.771H9.417Z" transform="translate(0 -2.583)" fill="#a0aabe" stroke="#a0aabe" stroke-width="0.3"/>
    <path id="Path_8382" data-name="Path 8382" d="M28.188,13.542H26.417V10.708a.708.708,0,1,0-1.417,0v7.438a.709.709,0,0,0,.708.708h2.479a1.773,1.773,0,0,0,1.771-1.771V15.313A1.773,1.773,0,0,0,28.188,13.542Zm.354,3.542a.355.355,0,0,1-.354.354H26.417V14.958h1.771a.355.355,0,0,1,.354.354Z" transform="translate(-10.979)" fill="#a0aabe" stroke="#a0aabe" stroke-width="0.3"/>
    <path id="Path_8383" data-name="Path 8383" d="M46.25,22.6H44.479a1.064,1.064,0,0,1-1.063-1.062V20.479a1.064,1.064,0,0,1,1.063-1.063H46.25a.708.708,0,0,0,0-1.417H44.479A2.482,2.482,0,0,0,42,20.479v1.062a2.482,2.482,0,0,0,2.479,2.479H46.25a.708.708,0,0,0,0-1.417Z" transform="translate(-21.958 -5.167)" fill="#a0aabe" stroke="#a0aabe" stroke-width="0.3"/>
    <path id="Path_8384" data-name="Path 8384" d="M24.9,44.375a.706.706,0,0,0,.5-.208l4.958-4.958a.708.708,0,0,0-1-1L24.9,42.665l-2.687-2.687a.708.708,0,0,0-1,1L24.4,44.168A.706.706,0,0,0,24.9,44.375Z" transform="translate(-8.396 -18.083)" fill="#a0aabe" stroke="#a0aabe" stroke-width="0.3"/>
  </g>
</svg>
