<svg id="_Ad_care" xmlns="http://www.w3.org/2000/svg" width="33.298" height="33.298" viewBox="0 0 33.298 33.298">
  <path id="Path_8614" data-name="Path 8614" d="M0,16.649A16.649,16.649,0,1,1,16.649,33.3,16.649,16.649,0,0,1,0,16.649Z" fill="#6994f1"/>
  <path id="Path_8615" data-name="Path 8615" d="M116.344,130.794a5.994,5.994,0,0,0-8.463,0h0a5.994,5.994,0,0,0-8.463,0c-2.337,2.331-2,5.822,0,8.449,2.118,2.781,5.986,7.371,8.463,7.371h0c2.477,0,6.344-4.59,8.463-7.371C118.344,136.617,118.68,133.127,116.344,130.794Z" transform="translate(-91.23 -120.372)" fill="#fff"/>
</svg>
