<svg xmlns="http://www.w3.org/2000/svg" width="21.557" height="21.557" viewBox="0 0 21.557 21.557">
  <path id="premium" d="M16.25,7.307l-2.834.945L11.478,5.343a.842.842,0,0,0-1.4,0L8.138,8.251,5.305,7.307a.842.842,0,0,0-1.092.963c1.251,6.008,1.058,5.849,1.379,6.169a7.343,7.343,0,0,0,10.373,0c.32-.32.129-.174,1.379-6.169a.842.842,0,0,0-1.093-.963ZM14.6,13.42a5.661,5.661,0,0,1-7.635,0L6.149,9.363l2.064.689A.842.842,0,0,0,9.18,9.72l1.6-2.394,1.595,2.393a.842.842,0,0,0,.967.333l2.067-.689ZM10.778,0A10.773,10.773,0,1,0,18.4,3.155,10.778,10.778,0,0,0,10.778,0Zm0,19.868a9.095,9.095,0,1,1,9.089-9.091,9.095,9.095,0,0,1-9.089,9.091Zm0,0" fill="#6994f1"/>
</svg>
