<svg xmlns="http://www.w3.org/2000/svg" xmlns:xlink="http://www.w3.org/1999/xlink" width="648" height="168" viewBox="0 0 648 168">
  <defs>
    <filter id="Rectangle_26348" x="0" y="0" width="648" height="168" filterUnits="userSpaceOnUse">
      <feOffset dy="3" input="SourceAlpha"/>
      <feGaussianBlur stdDeviation="3" result="blur"/>
      <feFlood flood-opacity="0.161"/>
      <feComposite operator="in" in2="blur"/>
      <feComposite in="SourceGraphic"/>
    </filter>
    <linearGradient id="linear-gradient" x1="0.5" x2="0.5" y2="1" gradientUnits="objectBoundingBox">
      <stop offset="0" stop-color="#a0aabe"/>
      <stop offset="1" stop-color="gray" stop-opacity="0"/>
    </linearGradient>
    <linearGradient id="linear-gradient-2" x1="0.5" x2="0.5" y2="1" gradientUnits="objectBoundingBox">
      <stop offset="0" stop-color="#5586ef"/>
      <stop offset="1" stop-color="gray" stop-opacity="0"/>
    </linearGradient>
  </defs>
  <g id="Group_20146" data-name="Group 20146" transform="translate(-91 -2264)">
    <g id="Group_20082" data-name="Group 20082" transform="translate(2777 -883)">
      <g transform="matrix(1, 0, 0, 1, -2686, 3147)" filter="url(#Rectangle_26348)">
        <rect id="Rectangle_26348-2" data-name="Rectangle 26348" width="630" height="150" rx="10" transform="translate(9 6)" fill="#fff"/>
      </g>
      <g id="Group_20025" data-name="Group 20025" transform="translate(20202 -12553)">
        <path id="Rectangle_23721" data-name="Rectangle 23721" d="M10,0H210a0,0,0,0,1,0,0V150a0,0,0,0,1,0,0H10A10,10,0,0,1,0,140V10A10,10,0,0,1,10,0Z" transform="translate(-22879 15706)" fill="#f3f7ff"/>
        <text id="Scaling_Strategies_" data-name="Scaling 
Strategies " transform="translate(-22809 15776)" fill="#43425d" font-size="20" font-family="Helvetica"><tspan x="0" y="0">Scaling </tspan><tspan x="0" y="24">Strategies </tspan></text>
        <g id="statistics" transform="translate(-22854 15767.337)">
          <path id="Path_37999" data-name="Path 37999" d="M33.2,11.725a2.185,2.185,0,0,0,1.521-.618l2.168,1.085a2.156,2.156,0,0,0-.027.266,2.2,2.2,0,1,0,4.394,0,2.173,2.173,0,0,0-.22-.942l2.941-2.943a2.169,2.169,0,0,0,.941.22,2.2,2.2,0,0,0,2.2-2.2A2.167,2.167,0,0,0,47,5.944l2.555-1.917A2.2,2.2,0,1,0,48.577,2.2a2.167,2.167,0,0,0,.11.651L46.131,4.767a2.188,2.188,0,0,0-3.193,2.77L40,10.48a2.158,2.158,0,0,0-2.462.4L35.367,9.793a2.154,2.154,0,0,0,.027-.266,2.2,2.2,0,1,0-2.2,2.2Zm0,0" transform="translate(-29.486)" fill="#43425d"/>
          <path id="Path_38000" data-name="Path 38000" d="M24.268,166.207h-.781V150.732a.732.732,0,0,0-.732-.732h-2.93a.732.732,0,0,0-.732.732v15.475H17.627V155.126a.732.732,0,0,0-.732-.732h-2.93a.732.732,0,0,0-.732.732v11.081H11.768v-5.223a.732.732,0,0,0-.732-.732H8.105a.732.732,0,0,0-.732.732v5.223H5.908v-8.152a.732.732,0,0,0-.732-.732H2.246a.732.732,0,0,0-.732.732v8.152H.732a.732.732,0,1,0,0,1.464H24.268a.732.732,0,1,0,0-1.464Zm0,0" transform="translate(0 -142.672)" fill="#35344b"/>
        </g>
      </g>
      <g id="Group_20026" data-name="Group 20026" transform="translate(2144 -269)">
        <g id="Group_19904" data-name="Group 19904" transform="translate(-5227 2755)">
          <path id="Rectangle_23721-2" data-name="Rectangle 23721" d="M0,0H410a10,10,0,0,1,10,10V140a10,10,0,0,1-10,10H0a0,0,0,0,1,0,0V0A0,0,0,0,1,0,0Z" transform="translate(616 667)" fill="#fff"/>
        </g>
      </g>
    </g>
    <g id="Group_20140" data-name="Group 20140" transform="translate(16 -35)">
      <g id="Group_9800" data-name="Group 9800" transform="translate(373 2328)">
        <rect id="Rectangle_20639" data-name="Rectangle 20639" width="163.727" height="45" rx="9" fill="#5586ef"/>
        <text id="Start_Bid_Testing" data-name="Start Bid Testing" transform="translate(82.263 29)" fill="#fcfcfc" font-size="18" font-family="Helvetica"><tspan x="-65.373" y="0">Start Bid Testing</tspan></text>
      </g>
    </g>
    <g id="Group_1465" data-name="Group 1465" transform="translate(404.415 2335.416)">
      <g id="Group_1414" data-name="Group 1414" transform="translate(0 60.17)">
        <path id="Path_122" data-name="Path 122" d="M132.036,0h-318.1" transform="translate(186.068)" fill="none" stroke="#e6e6e6" stroke-width="0.1"/>
      </g>
      <g id="Group_1463" data-name="Group 1463" transform="translate(0 77.103)">
        <path id="Path_122-2" data-name="Path 122" d="M132.036,0h-318.1" transform="translate(186.068)" fill="none" stroke="#e6e6e6" stroke-width="0.1"/>
      </g>
      <g id="Group_1415" data-name="Group 1415" transform="translate(0.133 43.54)">
        <path id="Path_123" data-name="Path 123" d="M132.127,0H-185.844" transform="translate(185.844)" fill="none" stroke="#e6e6e6" stroke-width="0.1"/>
      </g>
      <g id="Group_1416" data-name="Group 1416" transform="translate(0.133 26.759)">
        <path id="Path_124" data-name="Path 124" d="M132.127,0H-185.844" transform="translate(185.844)" fill="none" stroke="#e6e6e6" stroke-width="0.1"/>
      </g>
      <g id="Group_1417" data-name="Group 1417" transform="translate(0 9.805)">
        <path id="Path_125" data-name="Path 125" d="M132.036,0h-318.1" transform="translate(186.068)" fill="none" stroke="#e6e6e6" stroke-width="0.1"/>
      </g>
      <g id="Group_1418" data-name="Group 1418" transform="translate(9.688)">
        <path id="Path_126" data-name="Path 126" d="M0-50.431v-77.151" transform="translate(0 127.582)" fill="none" stroke="#e6e6e6" stroke-width="0.1"/>
      </g>
      <g id="Group_1419" data-name="Group 1419" transform="translate(115.453)">
        <path id="Path_127" data-name="Path 127" d="M0-50.431v-77.151" transform="translate(0 127.582)" fill="none" stroke="#e6e6e6" stroke-width="0.1"/>
      </g>
      <g id="Group_1420" data-name="Group 1420" transform="translate(203.034)">
        <path id="Path_128" data-name="Path 128" d="M0-50.431v-77.151" transform="translate(0 127.582)" fill="none" stroke="#e6e6e6" stroke-width="0.1"/>
      </g>
      <g id="Group_1421" data-name="Group 1421" transform="translate(308.549)">
        <path id="Path_129" data-name="Path 129" d="M0-50.431v-77.151" transform="translate(0 127.582)" fill="none" stroke="#e6e6e6" stroke-width="0.1"/>
      </g>
    </g>
    <path id="Path_1733" data-name="Path 1733" d="M122.072,38.651,211.553,28.8l148.02-16.327h0L404.039,2.23V54.379H0l1.757-5.516Z" transform="translate(318.48 2357.973)" opacity="0.15" fill="url(#linear-gradient)"/>
    <path id="Path_1734" data-name="Path 1734" d="M112.79,19.655c47.658-7.719,70.9-21.325,102.648-32.884s30.816-6.437,52.323-10.174a28.392,28.392,0,0,0,8.014-2.874c19.846-10.146,42.328-43,42.328-43V43.55l-405.544.43V8.935S65.133,27.374,112.79,19.655Z" transform="translate(404.415 2364.802)" opacity="0.5" fill="url(#linear-gradient-2)"/>
    <g id="Group_1453" data-name="Group 1453" transform="translate(404.415 2369.927)">
      <path id="Path_172" data-name="Path 172" d="M-85.935-8.561c24.8.366,52.823-.616,99.071-2.505s56.63-1.46,85.918-5.051c41.484-5.086,66.807-10.092,66.807-10.092L272.786-43.626s37.494-6.185,47-8.708" transform="translate(-1.517 42.278)" fill="none" stroke="#a0aabe" stroke-width="1.5"/>
    </g>
    <g id="Group_1462" data-name="Group 1462" transform="translate(405.415 2350.717)">
      <path id="Path_182" data-name="Path 182" d="M-88.73-31.865s132.617,15.6,190.363,11.083,74.093-21.064,116.326-35.307,36.692-.552,61.525-14.637c8.369-4.747,14.295-12.048,20.109-18.264A181.961,181.961,0,0,0,317.1-110.733" transform="translate(0 55.885)" fill="none" stroke="#5586ef" stroke-width="1.5"/>
    </g>
    <g id="Path_38021" data-name="Path 38021" transform="translate(465 2380)" fill="#fff">
      <path d="M 9.5 18 C 4.813079833984375 18 1 14.18692016601562 1 9.5 C 1 4.813079833984375 4.813079833984375 1 9.5 1 C 14.18692016601562 1 18 4.813079833984375 18 9.5 C 18 14.18692016601562 14.18692016601562 18 9.5 18 Z" stroke="none"/>
      <path d="M 9.5 2 C 5.364489555358887 2 2 5.364489555358887 2 9.5 C 2 13.6355094909668 5.364489555358887 17 9.5 17 C 13.6355094909668 17 17 13.6355094909668 17 9.5 C 17 5.364489555358887 13.6355094909668 2 9.5 2 M 9.5 0 C 14.74670028686523 0 19 4.253299713134766 19 9.5 C 19 14.74670028686523 14.74670028686523 19 9.5 19 C 4.253299713134766 19 0 14.74670028686523 0 9.5 C 0 4.253299713134766 4.253299713134766 0 9.5 0 Z" stroke="none" fill="#5586ef"/>
    </g>
    <line id="Line_1225" data-name="Line 1225" y2="30" transform="translate(474.5 2345.5)" fill="none" stroke="#5586ef" stroke-width="2"/>
  </g>
</svg>
