<svg xmlns="http://www.w3.org/2000/svg" width="413.004" height="468.097" viewBox="0 0 413.004 468.097">
  <g id="shopify_glyph" transform="translate(-0.1 0.007)">
    <path id="Path_49339" data-name="Path 49339" d="M361.432,90.163a4.392,4.392,0,0,0-4.149-3.772c-1.886,0-35.077-.754-35.077-.754s-27.911-27.156-30.551-29.8-8.3-1.886-10.184-1.132c0,0-5.28,1.509-13.955,4.149a110.4,110.4,0,0,0-6.789-16.6C250.92,23.4,236.21,13.22,218.86,13.22h0a14.149,14.149,0,0,0-3.772.377c-.377-.754-1.132-1.132-1.509-1.886-7.543-8.3-17.35-12.07-29.042-11.692-22.63.754-45.261,16.973-63.365,46.015C108.349,66.4,98.542,92.049,95.525,112.039,69.5,119.96,51.4,125.617,51.018,125.995c-13.2,4.149-13.578,4.526-15.087,16.973C34.8,152.4.1,418.3.1,418.3L288.26,468.09,413.1,437.162C412.727,436.785,361.809,92.426,361.432,90.163ZM253.183,63.384c-6.789,1.886-14.333,4.526-22.253,6.789,0-11.315-1.509-27.534-6.789-41.112C241.113,32.456,249.411,51.692,253.183,63.384ZM215.466,75.076c-15.087,4.526-31.683,9.806-48.278,14.71,4.526-17.727,13.578-35.454,24.139-47.147,4.149-4.149,9.806-9.052,16.218-12.07C214.334,43.771,215.843,62.252,215.466,75.076Zm-30.551-59.97A25.914,25.914,0,0,1,198.493,18.5a73.808,73.808,0,0,0-17.727,13.955c-14.333,15.464-25.271,39.6-29.8,62.611-13.578,4.149-27.156,8.3-39.6,12.07C119.287,70.927,149.838,16.237,184.915,15.106Z" transform="translate(0 0)" fill="#95bf47"/>
    <g id="Group_23689" data-name="Group 23689" transform="translate(76.289 53.955)">
      <path id="Path_49340" data-name="Path 49340" d="M145.8,46.737c-1.886,0-35.077-.754-35.077-.754s-27.911-27.156-30.551-29.8A7.186,7.186,0,0,0,76.4,14.3V428.059L201.244,397.13s-50.918-344.359-51.3-347A4.419,4.419,0,0,0,145.8,46.737Z" transform="translate(135.194 -14.3)" fill="#5e8e3e"/>
      <path id="Path_49341" data-name="Path 49341" d="M162.494,43.481,148.162,97.794s-16.218-7.543-35.454-6.035C84.419,93.645,84.419,111.372,84.419,115.9c1.509,24.139,65.251,29.42,69.023,86.373,2.64,44.884-23.762,75.435-61.856,77.7C45.571,282.986,20.3,255.83,20.3,255.83l9.806-41.489s25.271,19.236,45.638,17.727c13.2-.754,18.1-11.692,17.727-19.236-1.886-31.683-53.936-29.8-57.33-81.846-2.64-43.752,26.025-88.258,89.39-92.03C150.047,37.069,162.494,43.481,162.494,43.481Z" transform="translate(-20.3 53.075)" fill="#fff"/>
    </g>
  </g>
</svg>
